<svg xmlns="http://www.w3.org/2000/svg" width="56.563" height="95.03" viewBox="0 0 56.563 95.03">
  <g id="noun-application-1738956" transform="translate(-203.9 -33.102)">
    <path id="Tracé_4705" data-name="Tracé 4705" d="M209.743,33.6a5.355,5.355,0,0,0-5.343,5.343V122.29a5.355,5.355,0,0,0,5.343,5.343h44.878a5.355,5.355,0,0,0,5.343-5.343V38.945a5.355,5.355,0,0,0-5.343-5.343Zm0,2.137h44.878a3.176,3.176,0,0,1,3.206,3.206v5.343H206.537V38.945a3.176,3.176,0,0,1,3.206-3.206Zm-3.206,10.685h51.289v64.112H206.537Zm25.612,12.822a1.09,1.09,0,0,0-.5.167l-14.959,8.548a1.082,1.082,0,0,0-.534.9v17.1a1.084,1.084,0,0,0,.534.9l14.959,8.548a1.083,1.083,0,0,0,.467.167,1.126,1.126,0,0,0,.6-.167l14.959-8.548a1.082,1.082,0,0,0,.534-.9v-17.1a1.084,1.084,0,0,0-.534-.9l-14.959-8.548a1.091,1.091,0,0,0-.568-.167Zm.034,2.3,12.789,7.313-12.789,7.313-12.789-7.313ZM218.325,70.7l12.789,7.313V92.67l-12.789-7.313Zm27.715,0V85.358L233.251,92.67V78.012Zm-39.5,41.974h51.289v9.616a3.176,3.176,0,0,1-3.206,3.206H209.744a3.176,3.176,0,0,1-3.206-3.206Zm25.645,3.206a3.206,3.206,0,1,0,3.206,3.206A3.206,3.206,0,0,0,232.184,115.879Z" fill="#66af27" stroke="#66af27" stroke-width="1"/>
  </g>
</svg>
