<svg xmlns="http://www.w3.org/2000/svg" width="29.558" height="44.031" viewBox="0 0 29.558 44.031">
  <g id="noun-idea-16183" transform="translate(-222.259 -89.712)">
    <path id="Tracé_4838" data-name="Tracé 4838" d="M259.677,192.493h-9.016c-3.7,0-3.758-2.671-3.787-3.954a2.777,2.777,0,0,0-.324-1.672c-2.7-3.329-4.33-5.638-4.33-9.6,0-7.606,6.418-11.71,12.456-11.71,6.066,0,12.189,3.622,12.189,11.71,0,3.969-1.636,6.276-4.332,9.6a1.458,1.458,0,0,1-2.267-1.834c2.618-3.23,3.683-4.837,3.683-7.767,0-6.492-5-8.794-9.273-8.794-4.741,0-9.54,3.02-9.54,8.794,0,2.929,1.065,4.537,3.679,7.767a5.3,5.3,0,0,1,.976,3.445,3.955,3.955,0,0,0,.093,1.015,2.106,2.106,0,0,0,.778.085h9.016a1.458,1.458,0,0,1,0,2.916Z" transform="translate(-17.651 -67.068)" fill="#66af27"/>
    <path id="Tracé_4839" data-name="Tracé 4839" d="M297.106,227.24a1.459,1.459,0,0,1-1.094-.494c-3.781-4.286-1.689-9.369-.055-11.459a1.458,1.458,0,0,1,2.3,1.793c-.15.2-3.159,4.222-.057,7.737a1.458,1.458,0,0,1-1.093,2.423Z" transform="translate(-63.34 -110.55)" fill="#66af27"/>
    <path id="Tracé_4840" data-name="Tracé 4840" d="M305.079,413.012H295.3a1.458,1.458,0,0,1,0-2.916h9.777a1.458,1.458,0,1,1,0,2.916Z" transform="translate(-63.303 -283.317)" fill="#66af27"/>
    <path id="Tracé_4841" data-name="Tracé 4841" d="M310.622,447.992H302.5a1.458,1.458,0,0,1,0-2.916h8.12a1.458,1.458,0,1,1,0,2.916Z" transform="translate(-69.669 -314.249)" fill="#66af27"/>
    <path id="Tracé_4842" data-name="Tracé 4842" d="M337.586,96.2a1.458,1.458,0,0,1-1.458-1.458V91.17a1.458,1.458,0,0,1,2.916,0v3.569A1.458,1.458,0,0,1,337.586,96.2Z" transform="translate(-100.694)" fill="#66af27"/>
    <path id="Tracé_4843" data-name="Tracé 4843" d="M226.238,140.411a1.453,1.453,0,0,1-1.031-.427l-2.521-2.524a1.458,1.458,0,1,1,2.062-2.062l2.521,2.524a1.458,1.458,0,0,1-1.031,2.489Z" transform="translate(0 -40.023)" fill="#66af27"/>
    <path id="Tracé_4844" data-name="Tracé 4844" d="M432.206,140.411a1.458,1.458,0,0,1-1.031-2.489L433.7,135.4a1.458,1.458,0,1,1,2.062,2.062l-2.521,2.524a1.453,1.453,0,0,1-1.031.427Z" transform="translate(-184.367 -40.023)" fill="#66af27"/>
  </g>
</svg>
