<svg xmlns="http://www.w3.org/2000/svg" width="26.804" height="32.89" viewBox="0 0 26.804 32.89">
  <g id="noun-map-3612560" transform="translate(0)">
    <path id="Tracé_4756" data-name="Tracé 4756" d="M144.029,10.823c-.157,0-.317,0-.478.007A13.4,13.4,0,0,0,130.7,22.913a13.537,13.537,0,0,0,.174,3.805,3.784,3.784,0,0,0,.1.468,12.748,12.748,0,0,0,.892,2.619c1.343,3.18,4.28,8.075,10.643,13.356a2.412,2.412,0,0,0,3.073,0c6.348-5.268,9.284-10.156,10.627-13.33a13.159,13.159,0,0,0,.9-2.639c.04-.157.067-.3.09-.441a13.382,13.382,0,0,0-13.169-15.926Zm7.41,5.723A10.577,10.577,0,0,1,154.7,24.22a10.978,10.978,0,0,1-.2,2.051l-.01.053v.01q-.01.06-.05.241a11.049,11.049,0,0,1-.728,2.145l-.007.013c-1.216,2.876-3.882,7.3-9.672,12.157-5.8-4.868-8.466-9.3-9.681-12.18l-.007-.017a10.683,10.683,0,0,1-.722-2.125c-.03-.13-.047-.22-.057-.264l-.01-.057a10.859,10.859,0,0,1-.144-3.067,10.683,10.683,0,0,1,10.24-9.621,10.555,10.555,0,0,1,7.784,2.987Z" transform="translate(-130.639 -10.823)" fill="#66af27"/>
    <path id="Tracé_4757" data-name="Tracé 4757" d="M239.086,128.829a7.209,7.209,0,1,0-7.206-7.213A7.216,7.216,0,0,0,239.086,128.829Zm-4.48-7.206a4.48,4.48,0,1,1,4.48,4.48A4.485,4.485,0,0,1,234.606,121.623Z" transform="translate(-225.695 -108.082)" fill="#66af27"/>
  </g>
</svg>
