<svg xmlns="http://www.w3.org/2000/svg" width="29.671" height="25.698" viewBox="0 0 29.671 25.698">
  <g id="noun-send-3612585" transform="translate(0)">
    <path id="Tracé_4752" data-name="Tracé 4752" d="M110.1,47.244a1.226,1.226,0,0,0-1.245-.19L82.036,57.967l-.018.009a1.92,1.92,0,0,0-1.143,1.869v.006a1.89,1.89,0,0,0,1.357,1.709l10.15,3.069L92.75,71.5v0a1.225,1.225,0,0,0,.823,1.082,1.134,1.134,0,0,0,.407.072,1.219,1.219,0,0,0,.919-.41l3.407-3.771,4.887,3.382a1.88,1.88,0,0,0,1.088.344,1.929,1.929,0,0,0,1.872-1.525.011.011,0,0,1,0-.009l4.365-22.239a1.249,1.249,0,0,0-.425-1.188Zm-2.807,4.887L103.9,69.368l-8.414-5.824ZM96.268,67.065l-1.23,1.36-.121-2.294Zm8.106-15.537L93.226,62.314l-8.809-2.662Z" transform="translate(-80.872 -46.963)" fill="#66af27"/>
  </g>
</svg>
