<svg xmlns="http://www.w3.org/2000/svg" width="42.932" height="30.53" viewBox="0 0 42.932 30.53">
  <g id="noun-folder-1239672" transform="translate(-86.045 -100.797)">
    <path id="Tracé_4845" data-name="Tracé 4845" d="M101.154,100.8a1.431,1.431,0,0,0-1.282,1.431v6.2h-.477a1.392,1.392,0,0,0-.149,0,1.431,1.431,0,0,0-1.267,1.655l3.339,20.033h0a1.431,1.431,0,0,0,1.416,1.208H136.12a1.431,1.431,0,0,0,1.416-1.208l3.339-20.033a1.432,1.432,0,0,0-1.416-1.655h-.477v-2.862a1.431,1.431,0,0,0-1.431-1.431H120.157L118.2,101.4a1.431,1.431,0,0,0-1.163-.6H101.3a1.4,1.4,0,0,0-.149,0Zm1.58,2.862h13.578l1.953,2.728h0a1.432,1.432,0,0,0,1.163.611H136.12v1.431H102.733v-4.77Zm-1.639,7.632h36.666L134.9,128.465H103.956l-2.862-17.172Z" transform="translate(-11.915 0)" fill="#fff"/>
  </g>
</svg>
