<svg xmlns="http://www.w3.org/2000/svg" width="297.962" height="152.372" viewBox="0 0 297.962 152.372">
  <g id="noun-world-map-439965" transform="translate(-35.715 -140.154)">
    <path id="Tracé_4713" data-name="Tracé 4713" d="M35.715,167.253H39.1v3.387H35.715Zm0,6.772H39.1v3.387H35.715Zm6.772-6.772h3.387v3.387H42.487Zm0,6.772h3.387v3.387H42.487Zm0,6.774h3.387v3.385H42.487Zm6.772-13.545h3.387v3.387H49.258Zm0,6.772h3.387v3.387H49.258Zm6.772-6.772h3.387v3.387H56.03Zm0,6.772h3.387v3.387H56.03ZM49.258,180.8h3.387v3.385H49.258ZM62.8,167.253h3.387v3.387H62.8Zm0,6.772h3.387v3.387H62.8Zm0,6.774h3.387v3.385H62.8Zm6.774-13.545H72.96v3.387H69.575Zm0,6.772H72.96v3.387H69.575Zm0,6.774H72.96v3.385H69.575Zm0,6.772H72.96v3.385H69.575Zm0,6.772H72.96v3.385H69.575Zm6.772-40.632h3.385V157.1H76.347Zm0,6.772h3.385v3.387H76.347Zm0,6.772h3.385v3.387H76.347Zm0,6.772h3.385v3.387H76.347Zm0,6.773h3.385v3.385H76.347Zm0,6.772h3.385v3.385H76.347Zm0,6.772h3.385v3.385H76.347Zm0,6.772h3.385V204.5H76.347Zm0,6.772h3.385v3.387H76.347Zm6.772-54.178H86.5v3.387H83.118Zm6.772-6.772h3.387v3.385H89.89Zm-6.772,13.543H86.5v3.387H83.118Zm0,6.772H86.5v3.387H83.118Zm0,6.772H86.5v3.387H83.118Zm0,6.774H86.5v3.385H83.118Zm0,6.772H86.5v3.385H83.118Zm0,6.772H86.5v3.385H83.118Zm0,6.772H86.5V204.5H83.118Zm0,6.772H86.5v3.387H83.118Zm0,6.772H86.5v3.387H83.118Zm6.772-54.178h3.387v3.387H89.89Zm0,6.772h3.387v3.387H89.89Zm0,6.772h3.387v3.387H89.89Zm0,6.774h3.387v3.385H89.89Zm0,6.772h3.387v3.385H89.89Zm0,6.772h3.387v3.385H89.89Zm0,6.772h3.387v3.387H89.89Zm0,6.772h3.387v3.387H89.89Zm0,6.772h3.387v3.387H89.89Zm0,6.772h3.387v3.387H89.89Zm6.772-74.49h3.387v3.385H96.661Zm0,6.772h3.387v3.387H96.661Zm0,6.772h3.387v3.387H96.661Zm6.772,0h3.387v3.387h-3.387Zm6.772,0h3.387v3.387H110.2Zm-13.543,6.772h3.387v3.387H96.661Zm0,20.317h3.387v3.385H96.661Zm0,6.772h3.387v3.385H96.661Zm0,6.772h3.387v3.387H96.661Zm0,6.772h3.387v3.387H96.661Zm6.772-20.315h3.387v3.385h-3.387Zm0,6.772h3.387v3.385h-3.387Zm0,6.772h3.387v3.387h-3.387Zm0,6.772h3.387v3.387h-3.387Zm0,20.317h3.387v3.385h-3.387Zm6.772,0h3.387v3.385H110.2Zm6.774,0h3.385v3.385h-3.385Zm6.772,0h3.385v3.385H123.75ZM110.2,234.966h3.387v3.385H110.2Zm6.774,0h3.385v3.385h-3.385Zm6.772,0h3.385v3.385H123.75Zm6.772,0h3.385v3.385h-3.385ZM110.2,241.738h3.387v3.385H110.2Zm6.774,0h3.385v3.385h-3.385Zm6.772,0h3.385v3.385H123.75Zm6.772,0h3.385v3.385h-3.385Zm6.772,0h3.387v3.385h-3.387ZM110.2,248.509h3.387V251.9H110.2Zm6.774,0h3.385V251.9h-3.385Zm6.772,0h3.385V251.9h-3.385Zm6.772,0h3.385V251.9h-3.385Zm-13.543,6.772h3.385v3.387h-3.385Zm6.772,0h3.385v3.387h-3.385Zm6.772,0h3.385v3.387h-3.385Zm-13.543,6.772h3.385v3.387h-3.385Zm6.772,0h3.385v3.387h-3.385Zm-6.772,6.772h3.385v3.387h-3.385Zm0,6.774h3.385v3.385h-3.385Zm0,6.772h3.385v3.385h-3.385Zm6.772,6.772h3.385v3.385h-3.385Zm0-20.317h3.385v3.387h-3.385Zm6.772-6.772h3.385v3.387h-3.385Zm6.772-13.543h3.387V251.9h-3.387ZM110.2,180.789h3.387v3.385H110.2Zm0,6.772h3.387v3.385H110.2Zm0-20.317h3.387v3.387H110.2Zm0,6.772h3.387V177.4H110.2Zm0,20.317h3.387v3.385H110.2Zm6.774-13.543h3.385v3.385h-3.385Zm0,6.772h3.385v3.385h-3.385Zm0-20.317h3.385v3.387h-3.385Zm0,6.772h3.385V177.4h-3.385Zm0,20.317h3.385v3.385h-3.385Zm6.772-6.772h3.385v3.385h-3.385Zm0,6.772h3.385v3.385h-3.385ZM110.2,201.1h3.387v3.387H110.2ZM96.661,221.418h3.387v3.387H96.661Zm6.772-81.264h3.387v3.385h-3.387Zm0,6.772h3.387v3.385h-3.387Zm6.772-6.772h3.387v3.385H110.2Zm0,6.772h3.387v3.385H110.2Zm6.774,0h3.385v3.385h-3.385Zm6.772,0h3.385v3.385h-3.385Zm0,6.772h3.385v3.387h-3.385Zm6.772-6.772h3.385v3.385h-3.385Zm6.772,0h3.387v3.385h-3.387Zm6.772,0h3.387v3.385h-3.387Zm6.772,0h3.387v3.385h-3.387Zm6.772,0h3.387v3.385h-3.387Zm30.475,0h3.385v3.385h-3.385Zm6.772,0h3.385v3.385h-3.385ZM130.522,153.7h3.385v3.387h-3.385Zm6.772,0h3.387v3.387h-3.387Zm6.772,0h3.387v3.387h-3.387Zm6.772,0h3.387v3.387h-3.387Zm-20.315,6.772h3.385v3.387h-3.385Zm6.772,0h3.387v3.387h-3.387Zm-6.772,6.772h3.385v3.387h-3.385Zm6.772,0h3.387v3.387h-3.387Zm0,6.772h3.387V177.4h-3.387Zm6.772-13.543h3.387v3.387h-3.387Zm6.772,0h3.387v3.387h-3.387Zm6.772-6.772H161v3.387h-3.387Zm10.159,33.86h3.387v3.385h-3.387Zm0,27.087h3.387v3.387h-3.387Zm0,6.772h3.387V224.8h-3.387Zm0,6.774h3.387v3.385h-3.387Zm6.772-13.545h3.387v3.387h-3.387Zm0,6.772h3.387V224.8h-3.387Zm0,6.774h3.387v3.385h-3.387Zm6.772-13.545H184.7v3.387h-3.387Zm0,6.772H184.7V224.8h-3.387Zm0,6.774H184.7v3.385h-3.387Zm6.774-13.545h3.385v3.387h-3.385Zm-13.545-6.772h3.387v3.387h-3.387Zm6.772,0H184.7v3.387h-3.387Zm0-13.543H184.7v3.385h-3.387Zm0-6.772H184.7v3.385h-3.387Zm6.774,20.315h3.385v3.387h-3.385Zm0,13.543h3.385V224.8h-3.385Zm0,6.774h3.385v3.385h-3.385Zm0,13.543h3.385v3.385h-3.385Zm0-6.772h3.385v3.385h-3.385Zm0,13.543h3.385v3.387h-3.385Zm6.772-33.86h3.385v3.387h-3.385Zm0-6.772h3.385v3.387h-3.385Zm0,13.543h3.385V224.8h-3.385Zm0,6.773h3.385v3.385h-3.385Zm0,13.543h3.385v3.385h-3.385Zm0-6.772h3.385v3.385h-3.385Zm0,13.543h3.385v3.387h-3.385Zm6.772-33.86h3.385v3.387h-3.385Zm0,6.772h3.385V224.8h-3.385Zm0,6.773h3.385v3.385h-3.385Zm0,13.543h3.385v3.385h-3.385Zm0-6.772h3.385v3.385h-3.385Zm6.772-6.772h3.387v3.385H208.4Zm6.772,0h3.387v3.385h-3.387ZM208.4,241.732h3.387v3.385H208.4Zm0-6.772h3.387v3.385H208.4ZM201.627,248.5h3.385v3.387h-3.385Zm13.543,6.772h3.387v3.387h-3.387Zm0,6.772h3.387v3.387h-3.387Zm-20.315-6.772h3.385v3.387h-3.385Zm0,6.772h3.385v3.387h-3.385Zm-6.772-94.807h3.385v3.387h-3.385Zm0,6.772h3.385V177.4h-3.385Zm0,13.545h3.385v3.385h-3.385Zm0-6.772h3.385v3.385h-3.385Zm0,13.543h3.385v3.385h-3.385Zm6.772-27.089h3.385v3.387h-3.385Zm0,6.772h3.385V177.4h-3.385Zm0,13.545h3.385v3.385h-3.385Zm0-6.772h3.385v3.385h-3.385Zm6.772-13.545h3.385v3.387h-3.385Zm0,6.772h3.385V177.4h-3.385Zm0,13.545h3.385v3.385h-3.385Zm0-6.772h3.385v3.385h-3.385Zm6.772-13.545h3.387v3.387H208.4Zm0,6.772h3.387V177.4H208.4Zm0,13.545h3.387v3.385H208.4Zm6.772,6.772h3.387v3.385h-3.387ZM208.4,180.784h3.387v3.385H208.4Zm6.772-13.545h3.387v3.387h-3.387Zm0,6.772h3.387V177.4h-3.387Zm0,13.545h3.387v3.385h-3.387Zm0-6.772h3.387v3.385h-3.387Zm6.772-13.545h3.387v3.387h-3.387Zm0,6.772h3.387V177.4h-3.387Zm0,13.545h3.387v3.385h-3.387Zm0-6.772h3.387v3.385h-3.387Zm6.772-13.545H232.1v3.387h-3.387Zm0,6.772H232.1V177.4h-3.387Zm0,13.545H232.1v3.385h-3.387Zm0-6.772H232.1v3.385h-3.387Zm6.774-13.545h3.385v3.387h-3.385Zm0,6.772h3.385V177.4h-3.385Zm0,13.545h3.385v3.385h-3.385Zm0-6.772h3.385v3.385h-3.385Zm6.772-13.545h3.385v3.387h-3.385Zm0,6.772h3.385V177.4h-3.385Zm0,13.545h3.385v3.385h-3.385Zm0-6.772h3.385v3.385h-3.385Zm6.772-13.545h3.385v3.387h-3.385Zm0,6.772h3.385V177.4h-3.385Zm0,13.545h3.385v3.385h-3.385Zm0-6.772h3.385v3.385h-3.385Zm6.772-13.545h3.387v3.387H255.8Zm0,6.772h3.387V177.4H255.8Zm0,13.545h3.387v3.385H255.8Zm0-6.772h3.387v3.385H255.8Zm6.772-13.545h3.387v3.387h-3.387Zm0,6.772h3.387V177.4h-3.387Zm0,13.545h3.387v3.385h-3.387Zm0-6.772h3.387v3.385h-3.387Zm6.772-13.545h3.387v3.387h-3.387Zm0,6.772h3.387V177.4h-3.387Zm0,13.545h3.387v3.385h-3.387ZM208.4,207.871h3.387v3.387H208.4Zm6.772,0h3.387v3.387H215.17Zm6.772,0h3.387v3.387h-3.387Zm6.772,0H232.1v3.387h-3.387Zm6.774,0h3.385v3.387h-3.385Zm6.772,0h3.385v3.387h-3.385Zm6.772,0h3.385v3.387H249.03Zm6.772,0h3.387v3.387H255.8Zm6.772,0h3.387v3.387h-3.387Zm6.772,0h3.387v3.387h-3.387Zm-54.178,6.772h3.387v3.387h-3.387Zm6.772,0h3.387v3.387h-3.387Zm6.772,0H232.1v3.387h-3.387Zm6.774,0h3.385v3.387h-3.385Zm6.772,0h3.385v3.387h-3.385Zm0,6.772h3.385V224.8h-3.385Zm0,6.774h3.385v3.385h-3.385Zm6.772-13.545h3.385v3.387h-3.385Zm6.772,0h3.387v3.387H255.8Zm6.772,0h3.387v3.387h-3.387Zm-6.772,6.772h3.387V224.8H255.8Zm6.772,0h3.387V224.8h-3.387Zm0,6.774h3.387v3.385h-3.387Zm0,6.772h3.387v3.385h-3.387Zm6.772,0h3.387v3.385h-3.387Zm6.772,0H279.5v3.385h-3.387Zm-6.772,6.772h3.387v3.385h-3.387Zm6.772,0H279.5v3.385h-3.387Zm16.93,0h3.387v3.385h-3.387Zm6.772,0H303.2v3.385h-3.387Zm-30.473-27.089h3.387v3.387h-3.387Zm0-33.859h3.387v3.385h-3.387Zm6.772-13.545H279.5v3.387h-3.387Zm0,6.772H279.5V177.4h-3.387Zm0,13.545H279.5v3.385h-3.387Zm0-6.772H279.5v3.385h-3.387Zm6.773-13.545h3.385v3.387h-3.385Zm0,6.772h3.385V177.4h-3.385Zm0,13.545h3.385v3.385h-3.385Zm-54.178,6.772H232.1v3.385H228.71Zm6.774,0h3.385v3.385h-3.385Zm6.772,0h3.385v3.385h-3.385Zm6.772,0h3.385v3.385h-3.385Zm6.772,0h3.387v3.385H255.8Zm6.772,0h3.387v3.385H262.57Zm6.772,0h3.387v3.385h-3.387Zm6.772,0H279.5v3.385h-3.387Zm6.773,0h3.385v3.385h-3.385Zm-13.545,60.947h3.387v3.387h-3.387Zm6.772,0H279.5v3.387h-3.387Zm6.773,0h3.385v3.387h-3.385Zm6.772,0h3.385v3.387h-3.385Zm-20.317,6.772h3.387v3.387h-3.387Zm6.772,0H279.5v3.387h-3.387Zm6.773,0h3.385v3.387h-3.385Zm6.772,0h3.385v3.387h-3.385Zm6.772-6.772h3.385v3.387h-3.385Zm0,6.772h3.385v3.387h-3.385Zm-13.543,6.772h3.385V272.2h-3.385Zm6.772,0h3.385V272.2h-3.385Zm6.772,0h3.385V272.2h-3.385Zm6.772,0h3.387V272.2H303.2Zm13.543,0h3.387V272.2h-3.387Zm0,6.773h3.387v3.385h-3.387ZM228.711,201.1H232.1v3.387h-3.387Zm6.774,0h3.385v3.387h-3.385Zm6.772,0h3.385v3.387h-3.385Zm6.772,0h3.385v3.387h-3.385Zm6.772,0h3.387v3.387H255.8Zm6.772,0h3.387v3.387h-3.387Zm6.772,0h3.387v3.387h-3.387Zm6.772,0H279.5v3.387h-3.387Zm6.774-20.315h3.385v3.385h-3.385Zm6.772-13.545h3.385v3.387h-3.385Zm0,6.772h3.385V177.4h-3.385Zm0,13.545h3.385v3.385h-3.385Zm0-6.772h3.385v3.385h-3.385Zm6.772-13.545h3.385v3.387h-3.385Zm-74.49-6.772h3.387v3.387h-3.387Zm6.772,0H232.1v3.387h-3.387Zm-6.772-6.772h3.387v3.387h-3.387Zm6.772,0H232.1v3.387h-3.387Zm6.774,6.772h3.385v3.387h-3.385Zm6.772,0h3.385v3.387h-3.385Zm6.772,0h3.385v3.387h-3.385Zm6.772,0h3.387v3.387H255.8Zm6.772,0h3.387v3.387h-3.387ZM249.029,153.7h3.385v3.387h-3.385Zm6.772,0h3.387v3.387H255.8Zm0-6.772h3.387v3.385H255.8Zm6.772,6.772h3.387v3.387h-3.387Zm6.772,6.772h3.387v3.387h-3.387Zm6.772,0H279.5v3.387h-3.387Zm6.773,0h3.385v3.387h-3.385Zm6.772,0h3.385v3.387h-3.385Zm6.772,0h3.385v3.387h-3.385Zm0-6.772h3.385v3.387h-3.385Zm0,20.315h3.385V177.4h-3.385Zm6.772-6.772h3.387v3.387H303.2Zm0,6.772h3.387V177.4H303.2Zm6.772-6.772h3.387v3.387h-3.387Zm0,6.772h3.387V177.4h-3.387Zm6.772-6.772h3.387v3.387h-3.387Zm6.772,0h3.387v3.387h-3.387Zm6.773,0h3.385v3.387h-3.385Zm-13.545,6.772h3.387V177.4h-3.387Zm-6.772,6.773h3.387v3.385h-3.387ZM194.851,194.329h3.385v3.385h-3.385Zm6.772,6.772h3.385v3.387h-3.385Zm6.772,0h3.387v3.387h-3.387Zm-33.86-6.772h3.387v3.385h-3.387Zm0-13.543h3.387v3.385h-3.387Z" fill-rule="evenodd"/>
  </g>
</svg>
