<svg xmlns="http://www.w3.org/2000/svg" width="49.28" height="49.28" viewBox="0 0 49.28 49.28">
  <path id="noun-agreement-4851668" d="M78.008,29.568a3.067,3.067,0,0,0-2.464-1.232H73.08A3.08,3.08,0,0,0,70,31.416V42.5a3.08,3.08,0,0,0,3.08,3.08h2.464a3.067,3.067,0,0,0,2.464-1.232h4.645a3.486,3.486,0,0,0,1.774,1.713l6.517,2.772a5.359,5.359,0,0,0,2.156.443h.468a5.5,5.5,0,0,0,2.71-.715l7.392-4.213h7.6a3.067,3.067,0,0,0,2.464,1.232H116.2a3.08,3.08,0,0,0,3.08-3.08V31.416a3.08,3.08,0,0,0-3.08-3.08h-2.464a3.067,3.067,0,0,0-2.464,1.232H108.7l-1.01-1.023h0A4.928,4.928,0,0,0,104.2,27.1H85.08a4.928,4.928,0,0,0-3.474,1.441l-1.022,1.023Zm21.079,0,.173.111a3.942,3.942,0,0,1,1.54,5.162,4.078,4.078,0,0,1-2.464,2.119,3.978,3.978,0,0,1-3.166-.419L92.4,34.878,85.1,42.159a1.072,1.072,0,0,0-.3.727,1.1,1.1,0,0,0,.616.986l6.468,2.76a2.993,2.993,0,0,0,1.232.246h.468a3.029,3.029,0,0,0,1.491-.394l7.638-4.373a1.343,1.343,0,0,1,.542-.222h7.392V32.032h-2.464a1.231,1.231,0,0,1-.875-.357l-1.38-1.38a2.462,2.462,0,0,0-1.737-.727Zm17.728,1.848V42.5a.616.616,0,0,1-.616.616h-2.464a.616.616,0,0,1-.616-.616V31.416a.616.616,0,0,1,.616-.616H116.2a.616.616,0,0,1,.616.616Zm-40.656,0V42.5a.616.616,0,0,1-.616.616H73.08a.616.616,0,0,1-.616-.616V31.416a.616.616,0,0,1,.616-.616h2.464a.616.616,0,0,1,.616.616ZM89.207,34.5H87.248a1.232,1.232,0,0,1,0-2.464h4.928a1.233,1.233,0,0,1,.628.173l3.61,2.168a1.515,1.515,0,1,0,1.577-2.587l-3.7-2.218H85.079a2.463,2.463,0,0,0-1.737.715l-1.38,1.392a1.231,1.231,0,0,1-.875.357H78.624v9.856h3.819a3.447,3.447,0,0,1,.9-1.528ZM110.656,3.7a3.7,3.7,0,0,0-3.7-3.7H82.32a3.7,3.7,0,0,0-3.7,3.7V18.48a3.7,3.7,0,0,0,3.7,3.7h9.351l2.094,2.107h0a1.232,1.232,0,0,0,1.75,0l2.094-2.107h9.351a3.7,3.7,0,0,0,3.7-3.7Zm-2.464,0V18.48a1.232,1.232,0,0,1-1.232,1.232H97.1a1.231,1.231,0,0,0-.875.357l-1.589,1.6-1.589-1.6h0a1.231,1.231,0,0,0-.875-.357H82.32a1.232,1.232,0,0,1-1.232-1.232V3.7A1.232,1.232,0,0,1,82.32,2.464h24.64A1.232,1.232,0,0,1,108.192,3.7ZM90.069,11.963l3.7,3.7a1.222,1.222,0,0,0,1.9-.2l4.928-7.392a1.232,1.232,0,1,0-2.045-1.355l-4.1,6.16-2.624-2.661a1.237,1.237,0,0,0-1.75,1.75Zm-6.517.357h2.464a1.232,1.232,0,1,0,0-2.464H83.552a1.232,1.232,0,1,0,0,2.464Zm19.712,0h2.464a1.232,1.232,0,0,0,0-2.464h-2.464a1.232,1.232,0,0,0,0,2.464Z" transform="translate(-70 0)" fill="#fff" fill-rule="evenodd"/>
</svg>
