<svg xmlns="http://www.w3.org/2000/svg" width="34.453" height="49.218" viewBox="0 0 34.453 49.218">
  <path id="noun-conversation-4851681" d="M182.3,0H160.152A6.153,6.153,0,0,0,154,6.152V43.066a6.153,6.153,0,0,0,6.152,6.152H182.3a6.153,6.153,0,0,0,6.152-6.152V6.152A6.153,6.153,0,0,0,182.3,0ZM162.613,2.461h-2.461a3.691,3.691,0,0,0-3.691,3.691V43.066a3.691,3.691,0,0,0,3.691,3.691H182.3a3.691,3.691,0,0,0,3.691-3.691V6.152A3.691,3.691,0,0,0,182.3,2.461h-2.461v1.23a3.691,3.691,0,0,1-3.691,3.691H166.3a3.691,3.691,0,0,1-3.691-3.691ZM165.8,36.114a3.77,3.77,0,0,0-.874.652,3.691,3.691,0,0,0-1.083,2.609v2.461a3.691,3.691,0,0,0,3.691,3.691h7.383a3.691,3.691,0,0,0,3.691-3.691V39.374a3.692,3.692,0,0,0-1.083-2.609,3.77,3.77,0,0,0-.874-.652,6.037,6.037,0,0,0,.726-2.891,6.152,6.152,0,0,0-12.3,0,6.037,6.037,0,0,0,.726,2.891Zm9.118,2.03a6.056,6.056,0,0,1-2.461,1.108v3.814h2.461a1.231,1.231,0,0,0,1.23-1.23V39.374a1.231,1.231,0,0,0-1.23-1.23Zm-7.383,0a1.231,1.231,0,0,0-1.23,1.23v2.461a1.231,1.231,0,0,0,1.23,1.23H170V39.252A6.056,6.056,0,0,1,167.535,38.144Zm3.691-8.613a3.691,3.691,0,1,1-2.61,1.081A3.692,3.692,0,0,1,171.226,29.531ZM182.3,12.3a3.691,3.691,0,0,0-3.691-3.691H163.844a3.691,3.691,0,0,0-3.691,3.691v7.383a3.691,3.691,0,0,0,3.691,3.691h4.417l2.092,2.1h0a1.231,1.231,0,0,0,1.748,0l2.091-2.1h4.417a3.691,3.691,0,0,0,3.691-3.691Zm-2.461,0v7.383a1.231,1.231,0,0,1-1.23,1.23h-4.922a1.23,1.23,0,0,0-.874.357l-1.587,1.6-1.587-1.6h0a1.23,1.23,0,0,0-.874-.357h-4.922a1.231,1.231,0,0,1-1.23-1.23V12.3a1.231,1.231,0,0,1,1.23-1.23h14.765a1.231,1.231,0,0,1,1.23,1.23Zm-8.613,2.461A1.23,1.23,0,1,1,170,16a1.23,1.23,0,0,1,1.23-1.23Zm4.922,0a1.23,1.23,0,1,1-1.23,1.23,1.23,1.23,0,0,1,1.23-1.23Zm-9.844,0a1.23,1.23,0,1,1-1.23,1.23,1.23,1.23,0,0,1,1.23-1.23Zm11.074-12.3v1.23a1.231,1.231,0,0,1-1.23,1.23H166.3a1.231,1.231,0,0,1-1.23-1.23V2.461Z" transform="translate(-154 0)" fill="#fff" fill-rule="evenodd"/>
</svg>
