<svg xmlns="http://www.w3.org/2000/svg" width="61.356" height="44.483" viewBox="0 0 61.356 44.483">
  <path id="noun-success-4851694" d="M93.008,6.136H82.271a4.6,4.6,0,0,0-4.6,4.6V29.558a4.6,4.6,0,0,0,3.068,4.326v6a4.6,4.6,0,0,0,4.6,4.6h30.678a4.6,4.6,0,0,0,4.6-4.6v-6a4.6,4.6,0,0,0,3.068-4.326V10.737a4.6,4.6,0,0,0-4.6-4.6H108.347V4.6a4.6,4.6,0,0,0-4.6-4.6H97.61a4.6,4.6,0,0,0-4.6,4.6Zm24.542,28.285-4.6.66v6.335h3.068a1.534,1.534,0,0,0,1.534-1.534ZM91.474,35.51v5.905h18.407V35.51l-8.989,1.3a2,2,0,0,1-.43,0Zm-7.669-1.089v5.461a1.534,1.534,0,0,0,1.534,1.534h3.068V35.08ZM112.949,9.2H88.407V31.982l12.271,1.764L112.949,32Zm3.068,0h3.068a1.534,1.534,0,0,1,1.534,1.534V29.558a1.534,1.534,0,0,1-1.319,1.534l-3.283.46Zm-30.678,0V31.537l-3.283-.46a1.534,1.534,0,0,1-1.319-1.534V10.737A1.534,1.534,0,0,1,82.271,9.2Zm16.6,2.193a1.534,1.534,0,0,0-2.516,0l-3.068,4.418-5.307,1.427a1.534,1.534,0,0,0-.782,2.454l3.405,4.126-.215,5.322a1.534,1.534,0,0,0,2.056,1.534l5.169-1.948,5.169,1.856a1.534,1.534,0,0,0,2.056-1.534l-.245-5.261,3.405-4.126a1.453,1.453,0,0,0-.706-2.424l-5.307-1.427L101.982,11.4ZM73.911,24.711l-3.068,1.534a1.534,1.534,0,0,0,1.381,2.73l3.068-1.534a1.534,1.534,0,1,0-1.381-2.731Zm52.152,2.731,3.068,1.534a1.534,1.534,0,0,0,1.381-2.73l-3.068-1.534a1.534,1.534,0,1,0-1.381,2.731ZM100.678,14.971l2.086,3.068a1.7,1.7,0,0,0,.874.613l3.543.951-2.255,2.731a1.535,1.535,0,0,0-.353,1.043l.153,3.559L101.2,25.678h0a1.533,1.533,0,0,0-1.043,0l-3.528,1.258.153-3.559h0a1.535,1.535,0,0,0-.353-1.043L94.174,19.6l3.543-.951a1.7,1.7,0,0,0,.874-.613Zm26.076,6.5h3.068a1.534,1.534,0,1,0,0-3.068h-3.068a1.534,1.534,0,0,0,0,3.068ZM74.6,18.407H71.534a1.534,1.534,0,1,0,0,3.068H74.6a1.534,1.534,0,1,0,0-3.068Zm.69-5.967-3.068-1.534a1.534,1.534,0,0,0-1.381,2.73l3.068,1.534a1.534,1.534,0,0,0,1.381-2.73Zm52.152,2.731,3.068-1.534a1.534,1.534,0,0,0-1.381-2.73l-3.068,1.534a1.534,1.534,0,1,0,1.381,2.731ZM105.28,4.6V6.136h-9.2V4.6A1.534,1.534,0,0,1,97.61,3.068h6.136A1.534,1.534,0,0,1,105.28,4.6Z" transform="translate(-70 0)" fill="#fff" fill-rule="evenodd"/>
</svg>
