<svg xmlns="http://www.w3.org/2000/svg" width="68.246" height="37.572" viewBox="0 0 68.246 37.572">
  <g id="noun-handshake-3672688" transform="translate(-70.004 -125.845)">
    <path id="Tracé_4846" data-name="Tracé 4846" d="M481.638,152.025a1.812,1.812,0,0,1-1.566-.94l-9.13-16.769a1.794,1.794,0,0,1,.718-2.433l6.68-3.631a1.791,1.791,0,0,1,1.372-.15,1.837,1.837,0,0,1,1.078.868l9.122,16.9a1.792,1.792,0,0,1-.718,2.44l-6.695,3.5h0a1.836,1.836,0,0,1-.862.209Zm-6.68-17.853,7.413,13.633,3.52-1.837-7.413-13.713Z" transform="translate(-351.885 -1.917)" fill="#66af27"/>
    <path id="Tracé_4847" data-name="Tracé 4847" d="M78.762,151.226A1.771,1.771,0,0,1,77.9,151l-6.975-3.853a1.786,1.786,0,0,1-.718-2.389l9.338-17.939a1.8,1.8,0,0,1,1.07-.89,1.769,1.769,0,0,1,1.386.144l7.14,3.9h0a1.793,1.793,0,0,1,.718,2.411l-9.51,17.888a1.826,1.826,0,0,1-1.588.962Zm-4.569-6.386,3.843,2.153L85.8,132.261l-3.979-2.153Z" fill="#66af27"/>
    <path id="Tracé_4848" data-name="Tracé 4848" d="M266.838,149.334H264.46a3.408,3.408,0,0,1-2.873-5.259l3.958-6.1a3.7,3.7,0,0,1,3.1-1.693h7.743a3.73,3.73,0,0,1,2.449.925l6.149,5.4a.842.842,0,0,0,1.034.058l2.32-1.621L290.391,144l-2.32,1.614a4.422,4.422,0,0,1-5.459-.308l-6.156-5.4a.132.132,0,0,0-.072,0h-7.742a.114.114,0,0,0-.093.058l-3.778,5.819h2.04a.875.875,0,0,0,.51-.151,13.43,13.43,0,0,0,2.486-2.748,1.8,1.8,0,0,1,1.48-.782H275.9a1.794,1.794,0,1,1,0,3.588h-3.67a15.069,15.069,0,0,1-2.772,2.87,4.437,4.437,0,0,1-2.622.782Z" transform="translate(-167.75 -9.165)" fill="#66af27"/>
    <path id="Tracé_4849" data-name="Tracé 4849" d="M224.676,169.96h-9.618v-3.588h9.618Z" transform="translate(-127.377 -35.588)" fill="#66af27"/>
    <path id="Tracé_4850" data-name="Tracé 4850" d="M157.293,302.831a4.76,4.76,0,0,1-4.77-4.757V295.5a4.764,4.764,0,0,1,8.1-3.38,4.811,4.811,0,0,1,1.436,3.379v2.576a4.76,4.76,0,0,1-4.77,4.757Zm0-8.5a1.162,1.162,0,0,0-1.178,1.162v2.576a1.163,1.163,0,1,0,2.32,0V295.5a1.175,1.175,0,0,0-.352-.839,1.142,1.142,0,0,0-.79-.323Z" transform="translate(-72.463 -144.81)" fill="#66af27"/>
    <path id="Tracé_4851" data-name="Tracé 4851" d="M206.107,321.525a4.76,4.76,0,0,1-4.748-4.75l.767-2.576c.748-2.515,1.362-4.75,3.988-4.75a4.752,4.752,0,0,1,4.755,4.75v2.576a4.767,4.767,0,0,1-4.762,4.75Zm0-8.5a1.17,1.17,0,0,0-1.156,1.17v2.576a1.164,1.164,0,0,0,2.327,0V314.2a1.228,1.228,0,0,0-.359-.847,1.193,1.193,0,0,0-.812-.323Z" transform="translate(-115.347 -161.229)" fill="#66af27"/>
    <path id="Tracé_4852" data-name="Tracé 4852" d="M254.669,346.693a4.753,4.753,0,0,1-4.741-4.757l.943-2.755c0-4.216,4.148-6.162,7.153-3.2a4.8,4.8,0,0,1,1.437,3.379v2.576a4.76,4.76,0,0,1-4.791,4.757Zm0-8.5a1.163,1.163,0,0,0-1.149,1.163v2.576a1.164,1.164,0,1,0,2.32,0V339.36a1.229,1.229,0,0,0-.352-.84,1.192,1.192,0,0,0-.819-.323Z" transform="translate(-157.997 -183.277)" fill="#66af27"/>
    <path id="Tracé_4853" data-name="Tracé 4853" d="M309.332,217.331a4.444,4.444,0,0,1-2.765-.962l-2.5-2,2.241-2.805,2.5,1.995a.883.883,0,0,0,1.279-1.184l-1.825-1.679a1.8,1.8,0,0,1,2.428-2.648c1.109.975,2.3,2.124,3.283,3.035a.956.956,0,0,0,1.314,0,.946.946,0,0,0,0-1.385l-4.044-3.753a1.8,1.8,0,1,1,2.442-2.626l5.517,5.116A.976.976,0,1,0,320.524,207l-5.028-4.484a1.8,1.8,0,0,1,2.392-2.684l5.028,4.477,1.911,1.672a.847.847,0,1,0,1.128-1.263l-16.263-14.372,2.392-2.684L328.325,202.1a4.435,4.435,0,0,1-4.31,7.534,4.494,4.494,0,0,1-1.042,1.435,4.557,4.557,0,0,1-4.145,1.091,4.5,4.5,0,0,1-1.077,1.557,4.559,4.559,0,0,1-4.346,1.041,4.425,4.425,0,0,1-4.073,2.576Z" transform="translate(-205.538 -54.282)" fill="#66af27"/>
    <path id="Tracé_4854" data-name="Tracé 4854" d="M488.79,282.775l6.688-3.186,1.544,3.236-6.688,3.186Z" transform="translate(-367.749 -135.007)" fill="#66af27"/>
  </g>
</svg>
