<svg id="Groupe_2" data-name="Groupe 2" xmlns="http://www.w3.org/2000/svg" xmlns:xlink="http://www.w3.org/1999/xlink" width="273.999" height="80.99" viewBox="0 0 273.999 80.99">
  <defs>
    <clipPath id="clip-path">
      <rect id="Rectangle_4" data-name="Rectangle 4" width="273.999" height="80.99" fill="#81be36"/>
    </clipPath>
  </defs>
  <g id="Groupe_1" data-name="Groupe 1" clip-path="url(#clip-path)">
    <path id="Tracé_1" data-name="Tracé 1" d="M26.21,37.43a35.168,35.168,0,0,1,10.751,1.551,21.789,21.789,0,0,1,8.26,4.7,20.661,20.661,0,0,1,5.26,8.042A32.812,32.812,0,0,1,52.328,63.3V95.842h-4.91A6.441,6.441,0,0,1,40.976,89.4V63.691q0-8.43-3.922-11.87T26.21,48.38q-6.922,0-10.89,3.44t-3.968,11.87V89.4A6.441,6.441,0,0,1,4.91,95.842H0V63.3a32.771,32.771,0,0,1,1.846-11.58,20.379,20.379,0,0,1,5.306-8.042,22.257,22.257,0,0,1,8.26-4.7,35.036,35.036,0,0,1,10.8-1.551" transform="translate(0 -14.852)" fill="#81be36"/>
    <path id="Tracé_2" data-name="Tracé 2" d="M98.447,82.595a23.067,23.067,0,0,1,1.707-9.012A20.784,20.784,0,0,1,112.106,62a26.377,26.377,0,0,1,18.089,0,20.781,20.781,0,0,1,11.951,11.579,24.634,24.634,0,0,1,0,18.024,20.784,20.784,0,0,1-11.951,11.58,26.377,26.377,0,0,1-18.089,0,20.787,20.787,0,0,1-11.952-11.58,23.062,23.062,0,0,1-1.707-9.012m34.424,0q0-5.524-3.368-8.624a11.871,11.871,0,0,0-8.352-3.1,13.362,13.362,0,0,0-4.614.775,10.462,10.462,0,0,0-3.692,2.278,10.886,10.886,0,0,0-2.492,3.682,13.955,13.955,0,0,0,0,9.981,10.877,10.877,0,0,0,2.492,3.682,10.417,10.417,0,0,0,3.692,2.277,13.319,13.319,0,0,0,4.614.775,11.865,11.865,0,0,0,8.352-3.1q3.368-3.1,3.368-8.624" transform="translate(-39.064 -23.969)" fill="#81be36"/>
    <path id="Tracé_3" data-name="Tracé 3" d="M248.669,61.849V82q0,2.326-.092,4.748a29.732,29.732,0,0,1-.462,4.36,16.675,16.675,0,0,1-6.045,10.563q-4.755,3.684-12.044,3.682a15.5,15.5,0,0,1-7.937-1.987,12.921,12.921,0,0,1-5.169-5.475,12.927,12.927,0,0,1-5.168,5.475,15.507,15.507,0,0,1-7.936,1.987q-7.292,0-12-3.682a17.132,17.132,0,0,1-6.091-10.563,22.417,22.417,0,0,1-.554-4.36q-.093-2.421-.092-4.748V61.849h10.8V83.458a16.274,16.274,0,0,0,1.892,8.285,6.473,6.473,0,0,0,6.045,3.246q4.153,0,5.906-2.761a14.343,14.343,0,0,0,1.753-7.7V61.849h10.8V84.524q0,4.942,1.8,7.7t5.953,2.761a6.371,6.371,0,0,0,6-3.246,16.618,16.618,0,0,0,1.846-8.285V61.849Z" transform="translate(-73.442 -24.542)" fill="#81be36"/>
    <path id="Tracé_4" data-name="Tracé 4" d="M278.756,39.037h49.559v2.826a6.519,6.519,0,0,1-6.519,6.519H309.211v48.1H297.86v-48.1H285.275a6.519,6.519,0,0,1-6.519-6.519Z" transform="translate(-110.612 -15.49)" fill="#81be36"/>
    <path id="Tracé_5" data-name="Tracé 5" d="M360.7,87.633a9.4,9.4,0,0,0,4.061,5.233,13.161,13.161,0,0,0,7.105,1.841,19.6,19.6,0,0,0,5.307-.824,14.4,14.4,0,0,0,5.861-3.634l7.014,7.364a21.549,21.549,0,0,1-8.214,5.427,29.261,29.261,0,0,1-10.245,1.744,25.41,25.41,0,0,1-8.952-1.55,21.222,21.222,0,0,1-7.2-4.409,19.945,19.945,0,0,1-4.753-6.929,23.307,23.307,0,0,1-1.707-9.109,24.283,24.283,0,0,1,1.661-9.158A20.267,20.267,0,0,1,362.456,62a24.962,24.962,0,0,1,9.044-1.6,24.432,24.432,0,0,1,7.014,1.018,20.754,20.754,0,0,1,6.09,2.907,15.306,15.306,0,0,1,4.338,4.651,12.075,12.075,0,0,1,1.661,6.347,12.741,12.741,0,0,1-1.246,5.96,9.638,9.638,0,0,1-3.507,3.779,15.453,15.453,0,0,1-5.353,1.986,36.761,36.761,0,0,1-6.783.581Zm13.383-9.3a11.96,11.96,0,0,0,4.014-.581,2.33,2.33,0,0,0,1.615-2.422,3.951,3.951,0,0,0-2.446-3.537,12.058,12.058,0,0,0-5.768-1.308,13.617,13.617,0,0,0-7.245,1.89,9.237,9.237,0,0,0-4.107,5.96Z" transform="translate(-138.479 -23.969)" fill="#81be36"/>
    <path id="Tracé_6" data-name="Tracé 6" d="M447.145,46V96.305h-10.8V39.038h3.835A6.962,6.962,0,0,1,447.145,46" transform="translate(-173.146 -15.491)" fill="#81be36"/>
    <path id="Tracé_7" data-name="Tracé 7" d="M67.027,50.754a13.183,13.183,0,0,0-.326-1.5,29.241,29.241,0,0,0-1.677-7.721A20.69,20.69,0,0,0,59.758,33.5,21.7,21.7,0,0,0,51.5,28.8a35.208,35.208,0,0,0-10.749-1.55,35.086,35.086,0,0,0-10.8,1.55q-1.078.344-2.082.778C30,27.193,36.68,20.643,45.915,20.854c11.273.265,23.337,7.872,21.112,29.9" transform="translate(-11.06 -8.273)" fill="#81be36"/>
    <path id="Tracé_8" data-name="Tracé 8" d="M77.507,35.018a25.9,25.9,0,0,0-11.41-17.1c-10.2-6.744-21.94-2.834-21.94-2.834s4.4-4.673,13.9-4.808c10.228-.145,20.143,9.529,19.451,24.739" transform="translate(-17.522 -4.078)" fill="#81be36"/>
    <path id="Tracé_9" data-name="Tracé 9" d="M84.848,18.973A19.866,19.866,0,0,0,76.1,5.861C68.273.689,59.272,3.687,59.272,3.687S62.647.1,69.931,0c7.844-.112,15.448,7.308,14.917,18.973" transform="translate(-23.52 0)" fill="#81be36"/>
  </g>
</svg>
