<svg xmlns="http://www.w3.org/2000/svg" xmlns:xlink="http://www.w3.org/1999/xlink" width="352.821" height="139.276" viewBox="0 0 352.821 139.276">
  <defs>
    <filter id="Union_3" x="0" y="0" width="352.821" height="139.276" filterUnits="userSpaceOnUse">
      <feOffset dy="1" input="SourceAlpha"/>
      <feGaussianBlur stdDeviation="3" result="blur"/>
      <feFlood flood-opacity="0.129"/>
      <feComposite operator="in" in2="blur"/>
      <feComposite in="SourceGraphic"/>
    </filter>
    <clipPath id="clip-path">
      <rect id="Rectangle_4" data-name="Rectangle 4" width="165.228" height="48.839" fill="#fff"/>
    </clipPath>
  </defs>
  <g id="Groupe_978" data-name="Groupe 978" transform="translate(-916.152 -4090.032)">
    <g transform="matrix(1, 0, 0, 1, 916.15, 4090.03)" filter="url(#Union_3)">
      <path id="Union_3-2" data-name="Union 3" d="M151.2,98.715l.751-.751L46.936,92.46A49.357,49.357,0,1,1,52.1-6.119l236.1,12.373a49.358,49.358,0,0,1-5.167,98.58l-99.974-5.24-15.494,15.493Z" transform="translate(8.84 14.19)" fill="#66af27"/>
    </g>
    <g id="Groupe_971" data-name="Groupe 971" transform="translate(1006.465 4116.982) rotate(3)">
      <g id="Groupe_1" data-name="Groupe 1" clip-path="url(#clip-path)">
        <path id="Tracé_1" data-name="Tracé 1" d="M15.805,37.43a21.207,21.207,0,0,1,6.483.936A13.139,13.139,0,0,1,27.27,41.2a12.459,12.459,0,0,1,3.172,4.85,19.787,19.787,0,0,1,1.113,6.983V72.654H28.594A3.884,3.884,0,0,1,24.71,68.77v-15.5q0-5.083-2.365-7.158a9.586,9.586,0,0,0-6.539-2.074,9.692,9.692,0,0,0-6.567,2.074q-2.394,2.075-2.393,7.158v15.5a3.884,3.884,0,0,1-3.884,3.884H0V53.032a19.762,19.762,0,0,1,1.113-6.983,12.289,12.289,0,0,1,3.2-4.85,13.421,13.421,0,0,1,4.981-2.834,21.128,21.128,0,0,1,6.511-.936" transform="translate(0 -23.815)" fill="#fff"/>
        <path id="Tracé_2" data-name="Tracé 2" d="M98.447,73.786a13.91,13.91,0,0,1,1.029-5.435,12.533,12.533,0,0,1,7.207-6.983,15.906,15.906,0,0,1,10.908,0,12.531,12.531,0,0,1,7.207,6.983,14.855,14.855,0,0,1,0,10.869,12.533,12.533,0,0,1-7.207,6.983,15.906,15.906,0,0,1-10.908,0,12.535,12.535,0,0,1-7.207-6.983,13.907,13.907,0,0,1-1.029-5.434m20.758,0a6.718,6.718,0,0,0-2.031-5.2,7.158,7.158,0,0,0-5.037-1.87,8.058,8.058,0,0,0-2.783.467,6.309,6.309,0,0,0-2.226,1.373,6.564,6.564,0,0,0-1.5,2.22,8.415,8.415,0,0,0,0,6.019,6.559,6.559,0,0,0,1.5,2.221,6.282,6.282,0,0,0,2.226,1.373,8.032,8.032,0,0,0,2.783.467,7.155,7.155,0,0,0,5.037-1.87,6.718,6.718,0,0,0,2.031-5.2" transform="translate(-62.638 -38.433)" fill="#fff"/>
        <path id="Tracé_3" data-name="Tracé 3" d="M223.426,61.849V74q0,1.4-.055,2.863a17.931,17.931,0,0,1-.279,2.629,10.056,10.056,0,0,1-3.645,6.369,11.507,11.507,0,0,1-7.263,2.221,9.35,9.35,0,0,1-4.786-1.2,7.792,7.792,0,0,1-3.117-3.3,7.8,7.8,0,0,1-3.117,3.3,9.351,9.351,0,0,1-4.786,1.2,11.384,11.384,0,0,1-7.235-2.221,10.331,10.331,0,0,1-3.673-6.369,13.519,13.519,0,0,1-.334-2.629q-.056-1.46-.056-2.863V61.849h6.511V74.88a9.814,9.814,0,0,0,1.141,5,4.5,4.5,0,0,0,7.207.292A8.65,8.65,0,0,0,201,75.523V61.849h6.512V75.523a8.468,8.468,0,0,0,1.085,4.646,3.961,3.961,0,0,0,3.59,1.665,3.842,3.842,0,0,0,3.617-1.957,10.021,10.021,0,0,0,1.113-5V61.849Z" transform="translate(-117.76 -39.352)" fill="#fff"/>
        <path id="Tracé_4" data-name="Tracé 4" d="M278.756,39.037h29.885v1.7a3.931,3.931,0,0,1-3.931,3.931h-7.589v29h-6.845v-29h-7.589a3.931,3.931,0,0,1-3.931-3.931Z" transform="translate(-177.361 -24.838)" fill="#fff"/>
        <path id="Tracé_5" data-name="Tracé 5" d="M356.049,76.824A5.669,5.669,0,0,0,358.5,79.98a7.937,7.937,0,0,0,4.285,1.11,11.822,11.822,0,0,0,3.2-.5,8.681,8.681,0,0,0,3.534-2.191l4.23,4.441a13,13,0,0,1-4.953,3.273,17.646,17.646,0,0,1-6.178,1.052,15.323,15.323,0,0,1-5.4-.935,12.8,12.8,0,0,1-4.341-2.659,12.028,12.028,0,0,1-2.866-4.178,14.055,14.055,0,0,1-1.029-5.493,14.643,14.643,0,0,1,1-5.522,12.222,12.222,0,0,1,7.123-7.012,15.053,15.053,0,0,1,5.454-.964,14.733,14.733,0,0,1,4.23.614,12.516,12.516,0,0,1,3.673,1.753,9.228,9.228,0,0,1,2.616,2.8,7.281,7.281,0,0,1,1,3.828A7.683,7.683,0,0,1,373.33,73a5.812,5.812,0,0,1-2.115,2.279,9.319,9.319,0,0,1-3.228,1.2,22.169,22.169,0,0,1-4.09.351Zm8.07-5.61a7.212,7.212,0,0,0,2.421-.351,1.4,1.4,0,0,0,.974-1.461,2.382,2.382,0,0,0-1.475-2.133,7.271,7.271,0,0,0-3.478-.789,8.212,8.212,0,0,0-4.369,1.14,5.57,5.57,0,0,0-2.477,3.594Z" transform="translate(-222.043 -38.433)" fill="#fff"/>
        <path id="Tracé_6" data-name="Tracé 6" d="M442.859,43.236V73.571h-6.511V39.038h2.313a4.2,4.2,0,0,1,4.2,4.2" transform="translate(-277.631 -24.838)" fill="#fff"/>
        <path id="Tracé_7" data-name="Tracé 7" d="M51.484,38.882a7.95,7.95,0,0,0-.2-.9,17.632,17.632,0,0,0-1.011-4.656A12.477,12.477,0,0,0,47.1,28.476a13.088,13.088,0,0,0-4.98-2.834,21.231,21.231,0,0,0-6.482-.935,21.158,21.158,0,0,0-6.511.935q-.65.207-1.255.469c1.281-1.437,5.311-5.387,10.88-5.26,6.8.16,14.073,4.747,12.731,18.031" transform="translate(-17.734 -13.265)" fill="#fff"/>
        <path id="Tracé_8" data-name="Tracé 8" d="M64.268,25.2a15.621,15.621,0,0,0-6.88-10.31c-6.153-4.067-13.23-1.709-13.23-1.709s2.654-2.818,8.382-2.9c6.168-.088,12.147,5.746,11.729,14.918" transform="translate(-28.095 -6.539)" fill="#fff"/>
        <path id="Tracé_9" data-name="Tracé 9" d="M74.695,11.441a11.98,11.98,0,0,0-5.276-7.907C64.7.415,59.272,2.223,59.272,2.223S61.307.062,65.7,0c4.73-.067,9.316,4.407,9,11.441" transform="translate(-37.712 0.001)" fill="#fff"/>
      </g>
    </g>
  </g>
</svg>
