<svg id="Groupe_2" data-name="Groupe 2" xmlns="http://www.w3.org/2000/svg" xmlns:xlink="http://www.w3.org/1999/xlink" width="191.587" height="56.63" viewBox="0 0 191.587 56.63">
  <defs>
    <clipPath id="clip-path">
      <rect id="Rectangle_4" data-name="Rectangle 4" width="191.587" height="56.63" fill="#d3d6d5"/>
    </clipPath>
  </defs>
  <g id="Groupe_1" data-name="Groupe 1" clip-path="url(#clip-path)">
    <path id="Tracé_1" data-name="Tracé 1" d="M18.327,37.43a24.59,24.59,0,0,1,7.518,1.085A15.236,15.236,0,0,1,31.62,41.8,14.447,14.447,0,0,1,35.3,47.424a22.943,22.943,0,0,1,1.291,8.1V78.273H33.156a4.5,4.5,0,0,1-4.5-4.5V55.792q0-5.894-2.742-8.3t-7.583-2.405a11.238,11.238,0,0,0-7.615,2.405q-2.775,2.406-2.775,8.3V73.769a4.5,4.5,0,0,1-4.5,4.5H0V55.521a22.914,22.914,0,0,1,1.291-8.1A14.25,14.25,0,0,1,5,41.8a15.563,15.563,0,0,1,5.776-3.286,24.5,24.5,0,0,1,7.55-1.085" transform="translate(0 -21.643)" fill="#3d3d3d"/>
    <path id="Tracé_2" data-name="Tracé 2" d="M98.447,75.92a16.129,16.129,0,0,1,1.194-6.3,14.533,14.533,0,0,1,8.357-8.1,18.443,18.443,0,0,1,12.648,0,14.53,14.53,0,0,1,8.356,8.1,17.225,17.225,0,0,1,0,12.6,14.532,14.532,0,0,1-8.356,8.1,18.443,18.443,0,0,1-12.648,0,14.535,14.535,0,0,1-8.357-8.1,16.125,16.125,0,0,1-1.194-6.3m24.07,0a7.79,7.79,0,0,0-2.355-6.03,8.3,8.3,0,0,0-5.84-2.168,9.343,9.343,0,0,0-3.227.542,7.315,7.315,0,0,0-2.581,1.593,7.612,7.612,0,0,0-1.742,2.574,9.758,9.758,0,0,0,0,6.979,7.606,7.606,0,0,0,1.742,2.575,7.284,7.284,0,0,0,2.581,1.592,9.313,9.313,0,0,0,3.227.542,8.3,8.3,0,0,0,5.84-2.168,7.789,7.789,0,0,0,2.355-6.03" transform="translate(-56.925 -34.928)" fill="#81be36"/>
    <path id="Tracé_3" data-name="Tracé 3" d="M229.543,61.849V75.942q0,1.627-.064,3.32a20.79,20.79,0,0,1-.323,3.049A11.66,11.66,0,0,1,224.93,89.7a13.343,13.343,0,0,1-8.421,2.575,10.841,10.841,0,0,1-5.55-1.389,9.035,9.035,0,0,1-3.614-3.828,9.039,9.039,0,0,1-3.614,3.828,10.843,10.843,0,0,1-5.549,1.389,13.2,13.2,0,0,1-8.389-2.575,11.979,11.979,0,0,1-4.259-7.386,15.676,15.676,0,0,1-.387-3.049q-.065-1.693-.065-3.32V61.849h7.55v15.11a11.379,11.379,0,0,0,1.323,5.793,5.217,5.217,0,0,0,8.357.339,10.029,10.029,0,0,0,1.226-5.387V61.849h7.55V77.7a9.819,9.819,0,0,0,1.258,5.387,4.593,4.593,0,0,0,4.162,1.931,4.455,4.455,0,0,0,4.194-2.27,11.62,11.62,0,0,0,1.291-5.793V61.849Z" transform="translate(-107.02 -35.763)" fill="#81be36"/>
    <path id="Tracé_4" data-name="Tracé 4" d="M278.756,39.037h34.653v1.976a4.558,4.558,0,0,1-4.559,4.558h-8.8V79.2h-7.937V45.571h-8.8a4.559,4.559,0,0,1-4.558-4.558Z" transform="translate(-161.186 -22.572)" fill="#81be36"/>
    <path id="Tracé_5" data-name="Tracé 5" d="M357.177,79.443a6.574,6.574,0,0,0,2.84,3.659,9.2,9.2,0,0,0,4.968,1.287,13.707,13.707,0,0,0,3.711-.576,10.065,10.065,0,0,0,4.1-2.541l4.9,5.149a15.068,15.068,0,0,1-5.743,3.795,20.46,20.46,0,0,1-7.163,1.219,17.767,17.767,0,0,1-6.259-1.084A14.839,14.839,0,0,1,353.5,87.27a13.946,13.946,0,0,1-3.323-4.845,16.3,16.3,0,0,1-1.194-6.369,16.98,16.98,0,0,1,1.162-6.4,14.171,14.171,0,0,1,8.26-8.13,17.454,17.454,0,0,1,6.324-1.118,17.083,17.083,0,0,1,4.9.712,14.512,14.512,0,0,1,4.259,2.032,10.7,10.7,0,0,1,3.033,3.252,8.443,8.443,0,0,1,1.162,4.438,8.908,8.908,0,0,1-.871,4.167,6.739,6.739,0,0,1-2.452,2.642,10.805,10.805,0,0,1-3.743,1.389,25.705,25.705,0,0,1-4.743.407Zm9.357-6.5a8.363,8.363,0,0,0,2.807-.407,1.629,1.629,0,0,0,1.129-1.694,2.762,2.762,0,0,0-1.71-2.473,8.431,8.431,0,0,0-4.033-.915,9.521,9.521,0,0,0-5.066,1.321,6.459,6.459,0,0,0-2.872,4.167Z" transform="translate(-201.793 -34.928)" fill="#81be36"/>
    <path id="Tracé_6" data-name="Tracé 6" d="M443.9,43.906V79.081h-7.55V39.038h2.682a4.868,4.868,0,0,1,4.868,4.868" transform="translate(-252.311 -22.573)" fill="#81be36"/>
    <path id="Tracé_7" data-name="Tracé 7" d="M55.25,41.759a9.219,9.219,0,0,0-.228-1.046,20.446,20.446,0,0,0-1.173-5.4,14.467,14.467,0,0,0-3.682-5.622,15.176,15.176,0,0,0-5.774-3.286,24.618,24.618,0,0,0-7.516-1.084,24.533,24.533,0,0,0-7.549,1.084q-.753.24-1.456.544c1.485-1.666,6.158-6.246,12.615-6.1,7.882.186,16.318,5.5,14.762,20.907" transform="translate(-16.117 -12.055)" fill="#3d3d3d"/>
    <path id="Tracé_8" data-name="Tracé 8" d="M67.476,27.577A18.113,18.113,0,0,0,59.5,15.622c-7.134-4.716-15.341-1.982-15.341-1.982s3.077-3.267,9.719-3.362c7.151-.1,14.084,6.663,13.6,17.3" transform="translate(-25.533 -5.943)" fill="#81be36"/>
    <path id="Tracé_9" data-name="Tracé 9" d="M77.155,13.266A13.891,13.891,0,0,0,71.037,4.1C65.566.481,59.272,2.578,59.272,2.578S61.632.072,66.725,0c5.485-.078,10.8,5.11,10.43,13.266" transform="translate(-34.273 0.001)" fill="#3d3d3d"/>
  </g>
</svg>
