<svg xmlns="http://www.w3.org/2000/svg" xmlns:xlink="http://www.w3.org/1999/xlink" width="149.047" height="44.056" viewBox="0 0 149.047 44.056">
  <defs>
    <clipPath id="clip-path">
      <rect id="Rectangle_4" data-name="Rectangle 4" width="149.047" height="44.056" fill="#d3d6d5"/>
    </clipPath>
  </defs>
  <g id="Groupe_1" data-name="Groupe 1" clip-path="url(#clip-path)">
    <path id="Tracé_1" data-name="Tracé 1" d="M14.257,37.43a19.13,19.13,0,0,1,5.848.844A11.853,11.853,0,0,1,24.6,40.83a11.239,11.239,0,0,1,2.862,4.375,17.849,17.849,0,0,1,1,6.3V69.2H25.794a3.5,3.5,0,0,1-3.5-3.5V51.715q0-4.586-2.133-6.457a8.647,8.647,0,0,0-5.9-1.871,8.743,8.743,0,0,0-5.924,1.871Q6.174,47.13,6.175,51.715V65.7a3.5,3.5,0,0,1-3.5,3.5H0V51.5a17.827,17.827,0,0,1,1-6.3A11.086,11.086,0,0,1,3.89,40.83a12.107,12.107,0,0,1,4.493-2.556,19.059,19.059,0,0,1,5.874-.844" transform="translate(0 -25.149)" fill="#3d3d3d"/>
    <path id="Tracé_2" data-name="Tracé 2" d="M98.447,72.475a12.548,12.548,0,0,1,.929-4.9,11.306,11.306,0,0,1,6.5-6.3,14.348,14.348,0,0,1,9.84,0,11.3,11.3,0,0,1,6.5,6.3,13.4,13.4,0,0,1,0,9.8,11.306,11.306,0,0,1-6.5,6.3,14.348,14.348,0,0,1-9.84,0,11.308,11.308,0,0,1-6.5-6.3,12.545,12.545,0,0,1-.929-4.9m18.725,0a6.06,6.06,0,0,0-1.832-4.691A6.457,6.457,0,0,0,110.8,66.1a7.269,7.269,0,0,0-2.51.422,5.691,5.691,0,0,0-2.008,1.239,5.922,5.922,0,0,0-1.355,2,7.591,7.591,0,0,0,0,5.429,5.917,5.917,0,0,0,1.355,2,5.667,5.667,0,0,0,2.008,1.239,7.245,7.245,0,0,0,2.51.422,6.454,6.454,0,0,0,4.543-1.687,6.06,6.06,0,0,0,1.832-4.691" transform="translate(-66.145 -40.584)" fill="#81be36"/>
    <path id="Tracé_3" data-name="Tracé 3" d="M219.671,61.849V72.813q0,1.265-.05,2.583a16.173,16.173,0,0,1-.251,2.372,9.071,9.071,0,0,1-3.288,5.746,10.38,10.38,0,0,1-6.552,2,8.434,8.434,0,0,1-4.317-1.081,7.029,7.029,0,0,1-2.812-2.978,7.032,7.032,0,0,1-2.811,2.978,8.435,8.435,0,0,1-4.317,1.081,10.27,10.27,0,0,1-6.526-2,9.319,9.319,0,0,1-3.313-5.746,12.193,12.193,0,0,1-.3-2.372q-.051-1.317-.05-2.583V61.849h5.874V73.6a8.852,8.852,0,0,0,1.029,4.507,4.058,4.058,0,0,0,6.5.263,7.8,7.8,0,0,0,.953-4.191V61.849h5.874V74.184a7.639,7.639,0,0,0,.979,4.191,3.573,3.573,0,0,0,3.238,1.5,3.466,3.466,0,0,0,3.263-1.766,9.04,9.04,0,0,0,1-4.507V61.849Z" transform="translate(-124.353 -41.555)" fill="#81be36"/>
    <path id="Tracé_4" data-name="Tracé 4" d="M278.756,39.037h26.959v1.537a3.546,3.546,0,0,1-3.546,3.546h-6.845V70.284h-6.175V44.121H282.3a3.546,3.546,0,0,1-3.546-3.546Z" transform="translate(-187.291 -26.228)" fill="#81be36"/>
    <path id="Tracé_5" data-name="Tracé 5" d="M355.357,75.216a5.114,5.114,0,0,0,2.209,2.847,7.159,7.159,0,0,0,3.865,1,10.664,10.664,0,0,0,2.887-.448,7.83,7.83,0,0,0,3.188-1.977l3.815,4.006a11.722,11.722,0,0,1-4.468,2.952,15.917,15.917,0,0,1-5.573.949,13.822,13.822,0,0,1-4.87-.843,11.544,11.544,0,0,1-3.915-2.4,10.85,10.85,0,0,1-2.586-3.769,12.679,12.679,0,0,1-.929-4.955,13.209,13.209,0,0,1,.9-4.981,11.024,11.024,0,0,1,6.426-6.325,13.579,13.579,0,0,1,4.92-.87,13.29,13.29,0,0,1,3.815.554,11.29,11.29,0,0,1,3.313,1.581,8.326,8.326,0,0,1,2.36,2.53,6.569,6.569,0,0,1,.9,3.453,6.93,6.93,0,0,1-.678,3.242,5.243,5.243,0,0,1-1.908,2.056,8.406,8.406,0,0,1-2.912,1.08,20,20,0,0,1-3.69.316Zm7.28-5.06a6.505,6.505,0,0,0,2.184-.316,1.267,1.267,0,0,0,.879-1.318,2.149,2.149,0,0,0-1.33-1.924,6.559,6.559,0,0,0-3.137-.712,7.407,7.407,0,0,0-3.941,1.028,5.024,5.024,0,0,0-2.234,3.242Z" transform="translate(-234.475 -40.584)" fill="#81be36"/>
    <path id="Tracé_6" data-name="Tracé 6" d="M442.221,42.825V70.19h-5.873V39.038h2.086a3.787,3.787,0,0,1,3.787,3.787" transform="translate(-293.174 -26.229)" fill="#81be36"/>
    <path id="Tracé_7" data-name="Tracé 7" d="M49.171,37.116a7.171,7.171,0,0,0-.178-.814,15.906,15.906,0,0,0-.912-4.2,11.255,11.255,0,0,0-2.864-4.374,11.806,11.806,0,0,0-4.492-2.556,19.152,19.152,0,0,0-5.847-.843,19.086,19.086,0,0,0-5.873.843q-.586.187-1.132.423c1.155-1.3,4.791-4.859,9.814-4.745C43.82,21,50.382,25.133,49.171,37.116" transform="translate(-18.727 -14.008)" fill="#3d3d3d"/>
    <path id="Tracé_8" data-name="Tracé 8" d="M62.3,23.736a14.091,14.091,0,0,0-6.207-9.3c-5.55-3.669-11.935-1.542-11.935-1.542s2.394-2.542,7.561-2.615C57.281,10.2,62.675,15.461,62.3,23.736" transform="translate(-29.668 -6.905)" fill="#81be36"/>
    <path id="Tracé_9" data-name="Tracé 9" d="M73.185,10.32a10.807,10.807,0,0,0-4.76-7.132,11.444,11.444,0,0,0-9.153-1.183S61.108.056,65.07,0c4.267-.061,8.4,3.975,8.114,10.321" transform="translate(-39.824 0.001)" fill="#3d3d3d"/>
  </g>
</svg>
