<svg id="noun-phone-3612570" xmlns="http://www.w3.org/2000/svg" width="32.063" height="32.095" viewBox="0 0 32.063 32.095">
  <path id="Tracé_4753" data-name="Tracé 4753" d="M352.367,107.945a8.037,8.037,0,0,1,6.543,6.54,1.326,1.326,0,0,0,1.315,1.109,1.17,1.17,0,0,0,.211-.02.012.012,0,0,0,.01,0,1.328,1.328,0,0,0,1.09-1.539,10.686,10.686,0,0,0-8.726-8.716h0a1.333,1.333,0,0,0-.439,2.629Z" transform="translate(-335.151 -99.642)" fill="#66af27"/>
  <path id="Tracé_4754" data-name="Tracé 4754" d="M105.95,58.4a3.506,3.506,0,0,0-2.551-1.158,3.6,3.6,0,0,0-2.564,1.142l-1.851,1.851c-.046-.023-.091-.046-.133-.068l-.094-.046c-.2-.1-.426-.215-.615-.332a22.252,22.252,0,0,1-5.307-4.838,12.983,12.983,0,0,1-1.584-2.427c.465-.439.9-.878,1.3-1.295.091-.091.182-.185.277-.28s.185-.189.28-.283a3.43,3.43,0,0,0,0-5.18l-1.8-1.8c-.1-.1-.208-.208-.309-.312s-.2-.208-.306-.309l-.143-.146c-.355-.361-.722-.735-1.093-1.077a3.548,3.548,0,0,0-2.525-1.1,3.678,3.678,0,0,0-2.557,1.1s-.007,0-.007.007L82.118,44.1a5.253,5.253,0,0,0-1.558,3.335v0a11.79,11.79,0,0,0,.872,5.079,28.86,28.86,0,0,0,5.115,8.537,31.568,31.568,0,0,0,10.47,8.2h0a16.434,16.434,0,0,0,5.964,1.757h.026c.133.007.273.013.42.013a5.4,5.4,0,0,0,4.116-1.77l.016-.016a.326.326,0,0,0,.033-.036,14.686,14.686,0,0,1,1.119-1.155c.29-.277.586-.56.872-.865a3.728,3.728,0,0,0,1.126-2.6,3.631,3.631,0,0,0-1.149-2.567Zm-.358,9.067a2.722,2.722,0,0,1-2.147.895c-.085,0-.179-.007-.277-.013a14,14,0,0,1-4.981-1.5,28.663,28.663,0,0,1-9.595-7.506,26.3,26.3,0,0,1-4.656-7.753,9.064,9.064,0,0,1-.716-3.937,2.548,2.548,0,0,1,.787-1.676l2.238-2.238a1.056,1.056,0,0,1,.7-.345,1.013,1.013,0,0,1,.673.348l.01.01c.387.364.765.748,1.165,1.152l.013.013c.192.2.413.426.638.644l1.8,1.8c.524.524.524.891,0,1.415-.189.189-.381.381-.569.576l-.133.137c-.5.511-.979.992-1.5,1.451a.15.15,0,0,0-.023.023l-.033.033a1.761,1.761,0,0,0-.442,1.949c.007.02.013.036.02.052a.116.116,0,0,0,.013.029,14.894,14.894,0,0,0,2.2,3.582s0,0,0,.007a24.76,24.76,0,0,0,5.961,5.424,9.653,9.653,0,0,0,.849.465c.2.1.429.218.618.332a.242.242,0,0,0,.039.023l.01.007c.02.01.039.023.062.033a1.855,1.855,0,0,0,.852.211,1.792,1.792,0,0,0,1.318-.592l2.251-2.251a1.066,1.066,0,0,1,.683-.358,1,1,0,0,1,.644.355l.007.007,3.634,3.634c.358.358.6.781-.029,1.445l0,0c-.2.215-.41.42-.634.638-.049.046-.1.094-.146.143a15.331,15.331,0,0,0-1.3,1.337Z" transform="translate(-80.532 -38.925)" fill="#66af27"/>
  <path id="Tracé_4755" data-name="Tracé 4755" d="M371.329,24.372a17.311,17.311,0,0,0-14.124-14.111,1.331,1.331,0,0,0-.443,2.626A14.654,14.654,0,0,1,368.7,24.821a1.326,1.326,0,0,0,1.314,1.109h.01a1.083,1.083,0,0,0,.2-.02.012.012,0,0,0,.01,0,1.332,1.332,0,0,0,1.093-1.536Z" transform="translate(-339.287 -10.243)" fill="#66af27"/>
</svg>
