<svg id="noun-plan-1002245" xmlns="http://www.w3.org/2000/svg" width="24.018" height="21.359" viewBox="0 0 24.018 21.359">
  <path id="Tracé_4808" data-name="Tracé 4808" d="M99.743,47.78l1.071-3.366h0a1.494,1.494,0,0,0-.97-1.876l-1.97-.623L96.68,38.143a1.494,1.494,0,0,0-1.876-.97L88.88,39.054,82.956,37.17a1.494,1.494,0,0,0-1.876.97l-1.2,3.772-1.97.623a1.495,1.495,0,0,0-.97,1.876l1.076,3.368-1.069,3.366a1.495,1.495,0,0,0,.97,1.876l1.97.623,1.2,3.772a1.489,1.489,0,0,0,1.876.97l5.917-1.881L94.8,58.389a1.494,1.494,0,0,0,1.876-.97l1.2-3.772,1.97-.623h0a1.495,1.495,0,0,0,.97-1.876Zm-.276-4.07a.263.263,0,0,1,.17.33L99.1,45.746l-.761-2.4Zm-17.213-5.2a.264.264,0,0,1,.33-.17L86.848,39.7l-5.53,1.758ZM78.292,51.85a.263.263,0,0,1-.17-.33l.542-1.706.761,2.4Zm17.215,5.2h0a.264.264,0,0,1-.33.17l-4.264-1.354,5.53-1.758Zm3.959-5.2L82.584,57.215a.264.264,0,0,1-.33-.17L78.12,44.04a.263.263,0,0,1,.172-.33l16.886-5.368h0a.26.26,0,0,1,.2.017.263.263,0,0,1,.131.155L99.64,51.52a.263.263,0,0,1-.172.33ZM90.874,44.3A7.923,7.923,0,0,1,83.98,52.98H83.9a.617.617,0,1,1-.074-1.231,6.692,6.692,0,0,0,5.823-7.293l-.9,1.157h0a.616.616,0,1,1-.97-.758L89.6,42.521a.616.616,0,0,1,.864-.106L92.8,44.234a.616.616,0,0,1-.758.97Zm-7.556,4.321.391-1.014-1.014-.389a.619.619,0,1,1,.438-1.157l1.014.389.389-1.014h0a.616.616,0,0,1,1.142.448L85.3,46.894l1.017.394a.616.616,0,0,1-.441,1.15l-1.014-.389-.389,1.014h0a.616.616,0,0,1-1.15-.441Zm12.574,1.605a.616.616,0,0,1-.8.355l-1.014-.389L93.691,51.2a.616.616,0,0,1-1.15-.441l.389-1.012-1.015-.394a.616.616,0,0,1,.441-1.15l1.014.389.389-1.014h0a.618.618,0,0,1,1.152.446l-.389,1.014,1,.387a.615.615,0,0,1,.364.8Z" transform="translate(-76.871 -37.1)" fill="#084631"/>
</svg>
