<svg xmlns="http://www.w3.org/2000/svg" width="25.776" height="24.014" viewBox="0 0 25.776 24.014">
  <g id="noun-team-1002262" transform="translate(-72.685 -26.55)">
    <path id="Tracé_4807" data-name="Tracé 4807" d="M85.967,42.876a.664.664,0,1,1-.951.927,8.833,8.833,0,0,1-2.061-3.371.664.664,0,1,1,1.262-.414,7.5,7.5,0,0,0,1.751,2.858Zm13.216-3.291a.661.661,0,0,0-.84.422,7.5,7.5,0,0,1-1.751,2.869.664.664,0,1,0,.951.927A8.827,8.827,0,0,0,99.6,40.432a.664.664,0,0,0-.422-.847Zm-9.563-9.138a7.531,7.531,0,0,1,3.347,0,.664.664,0,1,0,.3-1.294,8.857,8.857,0,0,0-3.939,0,.664.664,0,0,0,.281,1.291Zm-6.33-3.86a2.776,2.776,0,1,1-1.964.8A2.775,2.775,0,0,1,83.289,26.587Zm0,1.328a1.427,1.427,0,1,0,1.461,1.426,1.445,1.445,0,0,0-1.461-1.426Zm.669,7.146,1.288-1.27h.4a1.187,1.187,0,0,1,1.2,1.171v1.522a.664.664,0,1,0,1.328,0V34.963a2.518,2.518,0,0,0-2.532-2.5h-.675a.664.664,0,0,0-.465.191l-1.222,1.2-1.222-1.2h0a.665.665,0,0,0-.465-.191h-.683a2.518,2.518,0,0,0-2.524,2.5v1.522a.664.664,0,1,0,1.328,0V34.963a1.188,1.188,0,0,1,1.2-1.171h.4l1.291,1.27a.959.959,0,0,0,1.344,0Zm18.1-5.722a2.789,2.789,0,1,1-1.395-2.416A2.789,2.789,0,0,1,102.059,29.339Zm-1.328,0a1.461,1.461,0,1,0-1.461,1.426,1.445,1.445,0,0,0,1.461-1.426Zm.909,3.124h-.683a.665.665,0,0,0-.465.191l-1.222,1.2-1.222-1.2h0a.664.664,0,0,0-.465-.191h-.675a2.518,2.518,0,0,0-2.532,2.5v1.522a.664.664,0,1,0,1.328,0V34.963a1.187,1.187,0,0,1,1.2-1.171h.4L98.6,35.059a.959.959,0,0,0,1.328,0l1.3-1.267h.412a1.188,1.188,0,0,1,1.2,1.171v1.522a.664.664,0,0,0,1.328,0V34.963a2.519,2.519,0,0,0-2.532-2.5ZM88.49,42.752a2.776,2.776,0,1,1,.825,1.954,2.789,2.789,0,0,1-.825-1.954Zm1.328,0a1.461,1.461,0,1,0,1.461-1.424,1.445,1.445,0,0,0-1.461,1.424Zm3.823,3.124h-.675a.663.663,0,0,0-.465.191l-1.222,1.2-1.222-1.2a.663.663,0,0,0-.465-.191h-.675a2.518,2.518,0,0,0-2.532,2.5V49.9h0a.664.664,0,1,0,1.328,0V48.375a1.188,1.188,0,0,1,1.2-1.171h.4l1.291,1.27h0a.959.959,0,0,0,1.328,0l1.291-1.267h.4a1.187,1.187,0,0,1,1.2,1.171V49.9a.664.664,0,1,0,1.328,0V48.375a2.518,2.518,0,0,0-2.526-2.5Z" transform="translate(-5.711 0)" fill="#084631"/>
  </g>
</svg>
