<svg xmlns="http://www.w3.org/2000/svg" width="52.849" height="47.084" viewBox="0 0 52.849 47.084">
  <g id="noun-communication-1676446" transform="translate(-87.651 -68.96)">
    <path id="Tracé_4831" data-name="Tracé 4831" d="M115.389,110.8a2.273,2.273,0,0,1-2.271-2.272V71.231a2.274,2.274,0,0,1,2.271-2.271h42.925a2.274,2.274,0,0,1,2.271,2.271V88.44c0,.3-.229,1-1.253,1s-1.382-.633-1.382-1V71.6h-42.2v36.243l9.7-6.563a2.26,2.26,0,0,1,1.273-.39h9.159v2.635h-9.048l-10.172,6.885a2.264,2.264,0,0,1-1.272.391Z" transform="translate(-25.466 0)" fill="#66af27"/>
    <path id="Tracé_4832" data-name="Tracé 4832" d="M363.245,294.478a1.853,1.853,0,0,1-1.039-.319l-5.575-3.773H339.108a1.856,1.856,0,0,1-1.854-1.854v-16.88a1.856,1.856,0,0,1,1.854-1.854h24.138a1.856,1.856,0,0,1,1.854,1.854v20.971a1.856,1.856,0,0,1-1.855,1.855Zm-23.356-6.728h16.984a1.848,1.848,0,0,1,1.039.319l4.553,3.082V272.434H339.889Z" transform="translate(-224.6 -178.435)" fill="#66af27"/>
    <path id="Tracé_4833" data-name="Tracé 4833" d="M292.466,190.293a4.2,4.2,0,1,1,4.2-4.2A4.2,4.2,0,0,1,292.466,190.293Zm0-5.755a1.56,1.56,0,1,0,1.56,1.56A1.562,1.562,0,0,0,292.466,184.537Z" transform="translate(-181.082 -100.343)" fill="#66af27"/>
    <path id="Tracé_4834" data-name="Tracé 4834" d="M393.846,190.293a4.2,4.2,0,1,1,4.2-4.2A4.2,4.2,0,0,1,393.846,190.293Zm0-5.755a1.56,1.56,0,1,0,1.56,1.56A1.562,1.562,0,0,0,393.846,184.537Z" transform="translate(-271.153 -100.343)" fill="#66af27"/>
    <path id="Tracé_4835" data-name="Tracé 4835" d="M191.446,190.293a4.2,4.2,0,1,1,4.2-4.2A4.2,4.2,0,0,1,191.446,190.293Zm0-5.755a1.56,1.56,0,1,0,1.56,1.56A1.562,1.562,0,0,0,191.446,184.537Z" transform="translate(-91.33 -100.343)" fill="#66af27"/>
  </g>
</svg>
