<svg xmlns="http://www.w3.org/2000/svg" width="72.46" height="82.38" viewBox="0 0 72.46 82.38">
  <g id="idea-svgrepo-com" transform="translate(0)">
    <g id="Groupe_912" data-name="Groupe 912" transform="translate(0)">
      <g id="Groupe_911" data-name="Groupe 911">
        <path id="Tracé_4701" data-name="Tracé 4701" d="M90.236.025,82.512,5.807l-7.768,18.11H68.5L66.045,18.6h1.6a5.3,5.3,0,0,0,5.315-5.29V7.972H75.62V0H67.648V7.972h2.657v5.34a2.639,2.639,0,0,1-2.657,2.632H64.819L61.423,8.6l4.069-2.028L52.17.864,49.038,11.824a11.955,11.955,0,1,0-18.594,10.09v2H27.226l-.207,1.09a29.9,29.9,0,0,0-.178,10.226L17.776,51.389l10.01,2.287V70.421H41.073V82.38H72.963V63.864A34.63,34.63,0,0,0,87.568,35.419l0-4.847a30.861,30.861,0,0,0-.509-5.554l-.2-1.1H84.257L90.236,9.592ZM70.305,5.34V2.683h2.657V5.34ZM65.571,23.917h-5.04L58.116,18.6h5ZM53.894,4.5l5.282,2.263-1.246.611,3.962,8.573H56.908L53.67,8.837l-1.189.6Zm3.718,19.419H51.7V21.285A2.682,2.682,0,0,1,54.361,18.6H55.2ZM52.394,12.459l1.612,3.546a5.3,5.3,0,0,0-4.96,5.279v2.632H43.731v-2a12.006,12.006,0,0,0,5.072-7.66Zm-24.608-.475a9.3,9.3,0,1,1,13.95,8.047l-.663.383v3.5H38.416V15.724a3.986,3.986,0,1,0-2.657,0v8.193H33.1v-3.5l-.663-.384A9.334,9.334,0,0,1,27.787,11.984Zm9.3,1.329a1.329,1.329,0,1,1,1.329-1.329A1.33,1.33,0,0,1,37.088,13.312ZM84.628,26.574a27.913,27.913,0,0,1,.29,3.986l0,4.856A32.353,32.353,0,0,1,70.89,62.079l-.585.4V79.723H43.731V67.764H30.444V51.557l-8.611-1.965,7.778-13.868-.076-.474a27.412,27.412,0,0,1-.093-8.675H84.628Zm-3.251-2.658H77.634L84.258,8.474,87.2,9.941Zm6.2-16.742-1.47-.735,1.47-1.1Z" transform="translate(-17.776)" fill="#66af27"/>
        <path id="Tracé_4702" data-name="Tracé 4702" d="M79.344,113.51a3.726,3.726,0,0,1-3.986-3.986H72.7a6.644,6.644,0,1,0,13.287,0H83.33A3.726,3.726,0,0,1,79.344,113.51Z" transform="translate(-57.375 -78.964)" fill="#66af27"/>
      </g>
    </g>
  </g>
</svg>
