<svg xmlns="http://www.w3.org/2000/svg" width="89.442" height="89.732" viewBox="0 0 89.442 89.732">
  <g id="Groupe_928" data-name="Groupe 928" transform="translate(-341.114 -4977.154)">
    <g id="noun-idea-1175578" transform="translate(257.842 4951.275)">
      <path id="Tracé_4729" data-name="Tracé 4729" d="M263.18,170.23a22.95,22.95,0,1,0-45.9,0,21.326,21.326,0,0,0,.678,5.423,36.884,36.884,0,0,0,4.261,10.07,20.015,20.015,0,0,0,2.905,3.97c1.162,1.259,1.356,1.55,1.356,3.777V198.7a5.65,5.65,0,0,0,3.1,5.036c.969,6.391,3.97,10.458,10.652,10.458s9.683-4.067,10.652-10.458a5.65,5.65,0,0,0,3.1-5.036V193.47c0-2.227.29-2.518,1.356-3.777a20.019,20.019,0,0,0,2.905-3.97c2.13-3.68,3.583-6.584,4.261-10.07a21.411,21.411,0,0,0,.675-5.423Zm-15.106,23.628v4.648H232.387v-4.648Zm-7.843,14.428c-1.646,0-3.68,0-4.648-3.97h9.2C243.91,208.286,241.876,208.286,240.23,208.286ZM256.886,174.3c-.581,2.808-1.84,5.229-3.68,8.522a17.23,17.23,0,0,1-2.227,3,17.409,17.409,0,0,0-1.743,2.227H231.225a12.61,12.61,0,0,0-1.743-2.227,18.459,18.459,0,0,1-2.227-3c-1.84-3.2-3.1-5.616-3.68-8.424v-.1a15.055,15.055,0,0,1-.484-4.067,17.14,17.14,0,1,1,34.28,0,21.128,21.128,0,0,1-.485,4.066Z" transform="translate(-112.285 -99.581)" fill="#66af27" stroke="#ddefd1" stroke-width="2"/>
      <path id="Tracé_4730" data-name="Tracé 4730" d="M538.614,262.64h-7.069a2.905,2.905,0,0,0,0,5.81h7.069a2.854,2.854,0,0,0,2.905-2.905A2.914,2.914,0,0,0,538.614,262.64Z" transform="translate(-369.805 -194.993)" fill="#66af27" stroke="#ddefd1" stroke-width="2"/>
      <path id="Tracé_4731" data-name="Tracé 4731" d="M473.867,106.606a2.789,2.789,0,0,0,2.034-.871l5.036-5.036a2.876,2.876,0,0,0-4.067-4.067l-5.036,5.036a2.808,2.808,0,0,0,0,4.067A2.95,2.95,0,0,0,473.867,106.606Z" transform="translate(-322.101 -56.971)" fill="#66af27" stroke="#ddefd1" stroke-width="2"/>
      <path id="Tracé_4732" data-name="Tracé 4732" d="M336.1,39.758a2.854,2.854,0,0,0,2.905-2.905V29.784a2.905,2.905,0,1,0-5.81,0v7.069A2.914,2.914,0,0,0,336.1,39.758Z" transform="translate(-208.16)" fill="#66af27" stroke="#ddefd1" stroke-width="2"/>
      <path id="Tracé_4733" data-name="Tracé 4733" d="M172.23,105.734a2.809,2.809,0,0,0,4.068,0,2.808,2.808,0,0,0,0-4.067l-5.036-5.036A2.876,2.876,0,0,0,167.2,100.7Z" transform="translate(-70.14 -56.97)" fill="#66af27" stroke="#ddefd1" stroke-width="2"/>
      <path id="Tracé_4734" data-name="Tracé 4734" d="M110.318,265.544a2.854,2.854,0,0,0-2.905-2.905h-7.069a2.905,2.905,0,0,0,0,5.81h7.069A2.914,2.914,0,0,0,110.318,265.544Z" transform="translate(-13.167 -194.993)" fill="#66af27" stroke="#ddefd1" stroke-width="2"/>
    </g>
  </g>
</svg>
