<svg xmlns="http://www.w3.org/2000/svg" width="23.742" height="24.15" viewBox="0 0 23.742 24.15">
  <g id="noun-profit-1002246" transform="translate(-72.362 -5.598)">
    <path id="Tracé_4804" data-name="Tracé 4804" d="M82.013,21.14l2.141-.532L85.989,28l-2.141.532a.616.616,0,1,0,.3,1.195l2.744-.682a.616.616,0,0,0,.448-.739l-.126-.51.035-.027,1.005-1.005h7.1a4.4,4.4,0,0,0,3.129-1.3l5.75-5.757a2.1,2.1,0,1,0-2.956-2.956l-3.2,3.2a2.074,2.074,0,0,0-1.934-1.306H89.135A5.255,5.255,0,0,0,85.4,20.2l-.062.062-.133-.535h0a.616.616,0,0,0-.739-.449l-2.745.668a.616.616,0,1,0,.3,1.195Zm4.252-.081a4.034,4.034,0,0,1,2.87-1.187h7a.856.856,0,1,1,0,1.712h-4.4a.616.616,0,0,0,0,1.232h4.4a2.077,2.077,0,0,0,1.567-.712l4.434-4.493a.871.871,0,1,1,1.232,1.232l-5.757,5.745a3.171,3.171,0,0,1-2.257.934H87.99a.617.617,0,0,0-.436.18l-.692.692-1.18-4.747Zm-2.823,5.725a.616.616,0,1,1,.739.451.6.6,0,0,1-.148.017.618.618,0,0,1-.591-.468ZM85.435,14.4h0a.616.616,0,0,1,.052-.87L90.463,9.1a.616.616,0,0,1,.707-.049l2.865,1.606,3.831-3.823H96.93a.616.616,0,0,1,0-1.232h2.422a.615.615,0,0,1,.616.616V8.635a.616.616,0,0,1-1.232,0V7.7l-4.154,4.151a.616.616,0,0,1-.739.1l-2.895-1.626L86.3,14.466a.616.616,0,0,1-.87-.052Zm13.328-3.166v5.521a.616.616,0,0,1-1.232,0V11.244a.616.616,0,0,1,1.232,0Zm-4.1,1.951a.616.616,0,0,1,.616.616v2.956a.616.616,0,1,1-1.232,0V13.8a.616.616,0,0,1,.616-.616Zm-3.476-.808a.616.616,0,0,1,.616.616v3.762a.616.616,0,1,1-1.232,0V12.988A.616.616,0,0,1,91.19,12.377Zm-3.476,2.784a.616.616,0,0,1,.616.616v.985a.616.616,0,1,1-1.232,0v-.985A.616.616,0,0,1,87.714,15.161Z" transform="translate(-8.864)" fill="#084631"/>
  </g>
</svg>
