<svg id="noun-business-group-1002254" xmlns="http://www.w3.org/2000/svg" width="23.802" height="21.718" viewBox="0 0 23.802 21.718">
  <path id="Tracé_4810" data-name="Tracé 4810" d="M79.976,39.79a2.487,2.487,0,1,0,1.756.713,2.467,2.467,0,0,0-1.756-.713Zm0,3.721a1.253,1.253,0,1,1,1.285-1.253A1.27,1.27,0,0,1,79.976,43.5Zm5.03-1.253h0a2.449,2.449,0,1,0,0-.012ZM87.505,41a1.253,1.253,0,1,1-1.285,1.253A1.27,1.27,0,0,1,87.505,41Zm4.372,6.247V50.01a.607.607,0,1,1-1.214,0V47.251a1.042,1.042,0,0,0-1.054-1.027h-.352l-1.144,1.125a.87.87,0,0,1-1.214,0l-1.144-1.125H85.4a1.042,1.042,0,0,0-1.054,1.027V50.01a.607.607,0,1,1-1.214,0V47.251A2.259,2.259,0,0,1,85.4,45.009H86a.608.608,0,0,1,.425.175l1.078,1.056,1.076-1.059a.607.607,0,0,1,.425-.175h.6a2.259,2.259,0,0,1,2.271,2.244Zm3.158-2.538A2.487,2.487,0,1,0,93.275,44,2.468,2.468,0,0,0,95.034,44.713Zm0-3.709a1.253,1.253,0,1,1-1.285,1.253A1.27,1.27,0,0,1,95.034,41ZM86.24,36.839a2.487,2.487,0,1,0-.741,1.749,2.5,2.5,0,0,0,.741-1.749Zm-3.784,0h0a1.285,1.285,0,1,1,1.285,1.251,1.27,1.27,0,0,1-1.285-1.251Zm11.314,0a2.487,2.487,0,1,0-.741,1.749,2.5,2.5,0,0,0,.741-1.749Zm-2.5,1.251a1.253,1.253,0,1,1,1.285-1.253,1.27,1.27,0,0,1-1.285,1.253ZM90,31.43a2.487,2.487,0,1,0-.74,1.75A2.5,2.5,0,0,0,90,31.43Zm-2.5,1.253A1.253,1.253,0,1,1,88.79,31.43a1.27,1.27,0,0,1-1.285,1.253Zm11.9,14.573v2.312a.607.607,0,0,1-1.214,0V47.251a1.042,1.042,0,0,0-1.054-1.027h-.352l-1.144,1.125a.87.87,0,0,1-1.214,0l-1.144-1.125h-.352a.607.607,0,1,1,0-1.214h.6a.607.607,0,0,1,.425.175l1.079,1.056,1.076-1.059h0a.607.607,0,0,1,.425-.175h.6a2.259,2.259,0,0,1,2.271,2.244ZM75.6,49.563V47.251a2.259,2.259,0,0,1,2.268-2.242h.6a.607.607,0,0,1,.425.175l1.078,1.056,1.076-1.059a.607.607,0,0,1,.425-.175h.6a.607.607,0,0,1,0,1.214h-.347l-1.144,1.127a.87.87,0,0,1-1.214,0l-1.144-1.125h-.352a1.042,1.042,0,0,0-1.054,1.027v2.312a.607.607,0,0,1-1.214,0Z" transform="translate(-75.604 -28.899)" fill="#084631"/>
</svg>
