<svg xmlns="http://www.w3.org/2000/svg" width="24.018" height="24.015" viewBox="0 0 24.018 24.015">
  <g id="noun-target-1002244" transform="translate(-72.157 -14)">
    <path id="Tracé_4805" data-name="Tracé 4805" d="M108.055,16.655a.632.632,0,0,0-.455-.445l-1.383-.349-.349-1.383a.632.632,0,0,0-1.059-.293l-2.673,2.667a.633.633,0,0,0-.167.6l.354,1.4-7.282,7.29a.633.633,0,1,0,.9.9l7.287-7.29,1.4.354a.632.632,0,0,0,.6-.162l2.667-2.673a.632.632,0,0,0,.162-.614Zm-3.469,2.134-1.034-.253L103.3,17.5l1.618-1.636.169.67a.632.632,0,0,0,.458.458l.67.169Zm-11.914,7.8a2.815,2.815,0,1,0,5.631,0v-.061a.632.632,0,1,1,1.264-.025v.086a4.152,4.152,0,1,1-4.078-4.078h.073a.632.632,0,0,1,.619.645.622.622,0,0,1-.645.619h-.066a2.817,2.817,0,0,0-2.8,2.814Zm5.563-5.876a6.511,6.511,0,1,0,3.13,3.137.632.632,0,1,1,1.145-.536,7.767,7.767,0,1,1-3.747-3.747.632.632,0,1,1-.536,1.145Zm1.6-3.32a10.168,10.168,0,1,0,4.854,4.862.633.633,0,0,1,1.143-.544,11.433,11.433,0,1,1-5.461-5.461.632.632,0,1,1-.538,1.143Z" transform="translate(-11.904)" fill="#084631"/>
  </g>
</svg>
