<svg xmlns="http://www.w3.org/2000/svg" width="59.189" height="57.843" viewBox="0 0 59.189 57.843">
  <g id="noun-maintenance-4024794" transform="translate(-76.248 -29.168)">
    <path id="Tracé_4745" data-name="Tracé 4745" d="M98.73,29.168a5.419,5.419,0,0,0-5.4,5.4V72.193a5.419,5.419,0,0,0,5.4,5.4h4.015a1.345,1.345,0,0,0,0-2.691H98.73a2.675,2.675,0,0,1-2.711-2.711V38.585H122.2l2.291,3.437h0a1.345,1.345,0,0,0,1.119.6h24.214V72.193a2.676,2.676,0,0,1-2.711,2.711H143.1a1.345,1.345,0,0,0,0,2.691h4.014a5.42,5.42,0,0,0,5.4-5.4V34.57a5.419,5.419,0,0,0-5.4-5.4Zm0,2.69h48.386a2.676,2.676,0,0,1,2.711,2.711v5.36H126.333l-2.291-3.437h0a1.345,1.345,0,0,0-1.119-.6h-26.9V34.57a2.676,2.676,0,0,1,2.711-2.711Z" transform="translate(-17.08)" fill="#66af27"/>
    <path id="Tracé_4746" data-name="Tracé 4746" d="M399.358,77.177a1.345,1.345,0,1,1-.394-.951A1.346,1.346,0,0,1,399.358,77.177Z" transform="translate(-285.444 -41.284)" fill="#66af27"/>
    <path id="Tracé_4747" data-name="Tracé 4747" d="M446.025,77.177a1.346,1.346,0,1,1-.394-.951A1.345,1.345,0,0,1,446.025,77.177Z" transform="translate(-326.729 -41.284)" fill="#66af27"/>
    <path id="Tracé_4748" data-name="Tracé 4748" d="M492.688,77.177a1.345,1.345,0,1,1-.394-.951A1.345,1.345,0,0,1,492.688,77.177Z" transform="translate(-368.012 -41.284)" fill="#66af27"/>
    <path id="Tracé_4749" data-name="Tracé 4749" d="M539.358,77.177a1.346,1.346,0,1,1-.394-.951A1.345,1.345,0,0,1,539.358,77.177Z" transform="translate(-409.301 -41.284)" fill="#66af27"/>
    <path id="Tracé_4750" data-name="Tracé 4750" d="M203,204.17a3.034,3.034,0,0,0-3.011,3.011v1.4c-.268.1-.531.211-.794.328l-.99-.99a3.032,3.032,0,0,0-4.256,0l-3.534,3.534a3.032,3.032,0,0,0,0,4.256l.99.99q-.176.393-.328.794h-1.4a3.034,3.034,0,0,0-3.011,3.01v5a3.034,3.034,0,0,0,3.011,3.011h1.4c.1.268.211.531.328.794l-.99.99a3.032,3.032,0,0,0,0,4.256l3.534,3.534a3.032,3.032,0,0,0,4.256,0l.99-.99q.393.176.794.328v1.4A3.034,3.034,0,0,0,203,241.835h5a3.034,3.034,0,0,0,3.011-3.011v-1.4c.268-.1.531-.211.794-.328l.99.99a3.032,3.032,0,0,0,4.256,0l3.534-3.534a3.032,3.032,0,0,0,0-4.256l-.99-.99q.176-.393.328-.794h1.4a3.034,3.034,0,0,0,3.01-3.01v-5a3.034,3.034,0,0,0-3.011-3.011h-1.4c-.1-.268-.211-.531-.328-.794l.99-.99a3.032,3.032,0,0,0,0-4.256l-3.534-3.534a3.032,3.032,0,0,0-4.256,0l-.99.99q-.393-.176-.794-.328v-1.4A3.034,3.034,0,0,0,208,204.17Zm0,2.69h5a.3.3,0,0,1,.321.321v2.291h0a1.346,1.346,0,0,0,.949,1.285,12.831,12.831,0,0,1,2.225.925,1.344,1.344,0,0,0,1.581-.239l1.621-1.621a.293.293,0,0,1,.452,0l3.534,3.534a.293.293,0,0,1,0,.452l-1.621,1.621h0a1.344,1.344,0,0,0-.239,1.581,12.8,12.8,0,0,1,.925,2.225,1.346,1.346,0,0,0,1.285.949h2.291a.3.3,0,0,1,.321.321v5a.3.3,0,0,1-.321.321h-2.291a1.346,1.346,0,0,0-1.285.949,12.83,12.83,0,0,1-.925,2.225,1.344,1.344,0,0,0,.239,1.581l1.621,1.621a.293.293,0,0,1,0,.452l-3.534,3.534a.293.293,0,0,1-.452,0l-1.621-1.621a1.344,1.344,0,0,0-1.581-.239,12.794,12.794,0,0,1-2.225.925,1.346,1.346,0,0,0-.949,1.285v2.291a.3.3,0,0,1-.321.321h-5a.3.3,0,0,1-.321-.321v-2.291h0a1.346,1.346,0,0,0-.949-1.285,12.829,12.829,0,0,1-2.225-.925,1.344,1.344,0,0,0-1.581.239l-1.621,1.621a.293.293,0,0,1-.452,0l-3.534-3.534a.293.293,0,0,1,0-.452l1.621-1.621h0a1.344,1.344,0,0,0,.239-1.581,12.8,12.8,0,0,1-.925-2.225,1.346,1.346,0,0,0-1.285-.949h-2.291a.294.294,0,0,1-.321-.32v-5a.3.3,0,0,1,.321-.321h2.291a1.346,1.346,0,0,0,1.285-.949,12.829,12.829,0,0,1,.925-2.225,1.344,1.344,0,0,0-.239-1.581l-1.621-1.621a.293.293,0,0,1,0-.452l3.534-3.534a.293.293,0,0,1,.452,0l1.621,1.621h0a1.344,1.344,0,0,0,1.581.239,12.794,12.794,0,0,1,2.225-.925,1.346,1.346,0,0,0,.949-1.285V207.18a.3.3,0,0,1,.321-.321Z" transform="translate(-99.659 -154.824)" fill="#66af27"/>
    <path id="Tracé_4751" data-name="Tracé 4751" d="M278.173,286.31a9.361,9.361,0,1,0,9.361,9.361A9.382,9.382,0,0,0,278.173,286.31Zm0,2.69a6.671,6.671,0,1,1-6.671,6.671A6.651,6.651,0,0,1,278.173,289Z" transform="translate(-172.33 -227.493)" fill="#66af27"/>
  </g>
</svg>
