<svg xmlns="http://www.w3.org/2000/svg" width="49.516" height="49.628" viewBox="0 0 49.516 49.628">
  <g id="noun-network-4855225" transform="translate(-105.811 -35.354)">
    <path id="Tracé_4828" data-name="Tracé 4828" d="M133.966,62.431h.177a1.775,1.775,0,0,0,1.774-1.579A18.736,18.736,0,0,1,148,45.343a7.1,7.1,0,1,0-.586-3.549,22.3,22.3,0,0,0-15.029,18.684,1.774,1.774,0,0,0,1.579,1.952Zm20.477-23.564a3.548,3.548,0,1,1-2.51,1.039A3.55,3.55,0,0,1,154.443,38.867Z" transform="translate(-23.873)" fill="#66af27"/>
    <path id="Tracé_4829" data-name="Tracé 4829" d="M138.075,350.891a18.614,18.614,0,0,1-19.412-2.732,6.886,6.886,0,0,0,1.082-2.271,7.087,7.087,0,1,0-6.831,5.252,6.922,6.922,0,0,0,3-.692,22.108,22.108,0,0,0,23.529,3.691A1.776,1.776,0,0,0,138,350.891Zm-28.249-5.075a3.5,3.5,0,0,1,3-5.323,3.305,3.305,0,0,1,.923.124,3.549,3.549,0,1,1-3.992,5.2Z" transform="translate(0 -271.018)" fill="#66af27"/>
    <path id="Tracé_4830" data-name="Tracé 4830" d="M464.311,151.981a6.939,6.939,0,0,0-2.822-3.922,22.858,22.858,0,0,0,.479-4.4,22.251,22.251,0,0,0-9.138-17.975,1.774,1.774,0,1,0-2.094,2.857,18.33,18.33,0,0,1,7.381,18.241,6.664,6.664,0,0,0-2.5.2,7.1,7.1,0,0,0-1.774,12.989,6.921,6.921,0,0,0,3.549.958,7.1,7.1,0,0,0,6.157-3.549,6.993,6.993,0,0,0,.763-5.394Zm-3.779,3.549h0a3.549,3.549,0,1,1-3.992-5.2,3.3,3.3,0,0,1,.923-.124,3.59,3.59,0,0,1,3.069,5.394Z" transform="translate(-309.219 -80.802)" fill="#66af27"/>
  </g>
</svg>
