<svg id="noun-portfolio-1002261" xmlns="http://www.w3.org/2000/svg" width="23.742" height="22.932" viewBox="0 0 23.742 22.932">
  <path id="Tracé_4809" data-name="Tracé 4809" d="M103.911,36.877A8.248,8.248,0,1,0,96.282,39.5a8.368,8.368,0,0,0,1.5.135,8.16,8.16,0,0,0,2.964-.557l1.7,3.844a2.749,2.749,0,0,0,1.782,1.545c.085.025.172.045.25.06h0a2.771,2.771,0,0,0,2.432-4.7ZM96.5,38.272a7,7,0,0,1,1.234-13.887A7.08,7.08,0,0,1,99,24.5a7,7,0,1,1-2.5,13.772Zm9.985,3.657a1.52,1.52,0,0,1-1.782,1.367.592.592,0,0,1-.142-.032h0a1.514,1.514,0,0,1-.98-.847l-1.715-3.879c.2-.115.395-.237.585-.37s.377-.277.555-.425l3.027,2.972a1.514,1.514,0,0,1,.452,1.215Zm-7.136-.577a.625.625,0,0,0-.625.625V44.35a.472.472,0,0,1-.472.472H90.476V41.031a1.437,1.437,0,0,0-1.437-1.43H85.25V27.014a.472.472,0,0,1,.472-.472h2.594a.625.625,0,1,0,0-1.25H85.722A1.725,1.725,0,0,0,84,27.014v13.5a.625.625,0,0,0,.183.443l4.941,4.934a.625.625,0,0,0,.442.183h8.691a1.725,1.725,0,0,0,1.722-1.72V41.988a.625.625,0,0,0-.625-.637Zm-13.507-.5h3.192a.188.188,0,0,1,.188.187v3.187Zm11.905-9.578a2.407,2.407,0,1,0-1.7-.694,2.389,2.389,0,0,0,1.7.694Zm0-3.527a1.14,1.14,0,1,1-1.17,1.14,1.155,1.155,0,0,1,1.17-1.142Zm3.569,7.791a.625.625,0,0,1-.625-.625V33.628a.94.94,0,0,0-.95-.925h-.315l-1.06,1.055a.875.875,0,0,1-1.22,0l-1.08-1.052H95.76a.94.94,0,0,0-.95.925v1.285a.625.625,0,1,1-1.25,0V33.628a2.189,2.189,0,0,1,2.2-2.175h.57a.624.624,0,0,1,.437.18l.985.97.985-.97a.625.625,0,0,1,.437-.18h.572a2.189,2.189,0,0,1,2.2,2.175v1.285a.625.625,0,0,1-.625.625Z" transform="translate(-84 -23.138)" fill="#084631"/>
</svg>
