<svg xmlns="http://www.w3.org/2000/svg" width="34.592" height="60.612" viewBox="0 0 34.592 60.612">
  <g id="noun-leadership-1932996" transform="translate(-110.252 -17.15)">
    <path id="Tracé_4819" data-name="Tracé 4819" d="M236.515,138.529l.021.021a5.492,5.492,0,0,0,10.671-1.811v-4.493a1,1,0,0,0-1-1h-4.493a5.477,5.477,0,0,0-5.192,7.272Zm5.2,1.7a3.476,3.476,0,0,1-2.709-1.314,10.947,10.947,0,0,1,6.2-2.631v.45a3.494,3.494,0,0,1-3.495,3.495Zm0-6.99h3.495v1.048a12.906,12.906,0,0,0-6.967,2.677c0-.077-.023-.151-.023-.23a3.495,3.495,0,0,1,3.495-3.495Z" transform="translate(-125.633 -100.779)" fill="#66af27" stroke="#66af27" stroke-width="0.6"/>
    <path id="Tracé_4820" data-name="Tracé 4820" d="M255.429,28.364c3-1.512,6.056-.743,9.3.07a26.928,26.928,0,0,0,5.535.968l-5.685,17.054c-.037,0-.072-.011-.109-.011h-5.28l-8.793-3.908h0a1,1,0,0,0-.405-.086h-3.994a3,3,0,0,0-3,3V58.427a.987.987,0,0,0,.039.275l1.92,6.721-2.085,7.644h0a3.43,3.43,0,1,0,6.6,1.888l2.475-8.252a1.014,1.014,0,0,0,.042-.288v-.382l2,1V72.9a3.5,3.5,0,0,0,3.495,3.495h.008A3.5,3.5,0,0,0,260.97,72.9v-9.48a1,1,0,0,0-.513-.873l-8.474-4.707V56.513l.8-4.807L258.7,53.4a.981.981,0,0,0,.276.039h3.274l-1.226,3.679a1,1,0,1,0,1.9.631l1.434-4.31h.113a3.489,3.489,0,0,0,2-6.35L275.9,18.8a1,1,0,0,0-1.9-.631l-.236.708c-2.763,1.06-5.584.375-8.563-.371a20.472,20.472,0,0,0-7.346-.913,1,1,0,0,0-.579,1.706l3.14,3.061-6.018,4.3h0a1,1,0,0,0,1.03,1.7Zm3.545,35.643V72.9a1.5,1.5,0,0,1-1.5,1.5,1.656,1.656,0,0,1-1.061-.438,1.487,1.487,0,0,1-.436-1.06V66.415a1,1,0,0,0-.552-.9L251.983,63.8V60.124Zm5.492-12.569h-5.352l-6.855-1.958a1,1,0,0,0-1.259.8l-1,5.991a.927.927,0,0,0-.014.161v9.839l-2.434,8.112h0a1.432,1.432,0,1,1-2.754-.788l2.158-7.914a1,1,0,0,0,0-.537l-1.962-6.855V45.447a1,1,0,0,1,1-1h3.782l8.793,3.908h0a1,1,0,0,0,.405.086h5.492a1.5,1.5,0,1,1,0,3Zm-1.916-28.145a1,1,0,0,0,.117-1.528l-2.244-2.188a30.872,30.872,0,0,1,4.294.868c2.686.672,5.446,1.363,8.272.762l-.834,2.516-1.238,3.708a22.216,22.216,0,0,1-5.706-.933,25.942,25.942,0,0,0-5.756-.994Z" transform="translate(-131.408)" fill="#66af27" stroke="#66af27" stroke-width="0.6"/>
  </g>
</svg>
