<svg xmlns="http://www.w3.org/2000/svg" width="54.399" height="37.932" viewBox="0 0 54.399 37.932">
  <g id="noun-people-3089905" transform="translate(0.054 -44.66)">
    <path id="Tracé_4811" data-name="Tracé 4811" d="M104.194,119.04a9.4,9.4,0,1,1-9.4,9.4A9.381,9.381,0,0,1,104.194,119.04Zm0,3.286a6.118,6.118,0,1,0,6.118,6.118A6.093,6.093,0,0,0,104.194,122.326Z" transform="translate(-87.475 -68.601)" fill="#66af27"/>
    <path id="Tracé_4812" data-name="Tracé 4812" d="M2.9,395.218a1.429,1.429,0,0,1-2.153.453,1.65,1.65,0,0,1-.567-2.266,19.762,19.762,0,0,1,33.085,0,1.731,1.731,0,0,1-.453,2.266,1.534,1.534,0,0,1-2.266-.453,16.515,16.515,0,0,0-27.647,0Z" transform="translate(0 -313.394)" fill="#66af27"/>
    <path id="Tracé_4813" data-name="Tracé 4813" d="M372.534,44.66a9.4,9.4,0,1,1-9.4,9.4A9.381,9.381,0,0,1,372.534,44.66Zm0,3.286a6.118,6.118,0,1,0,6.118,6.118A6.093,6.093,0,0,0,372.534,47.946Z" transform="translate(-334.967)" fill="#66af27"/>
    <path id="Tracé_4814" data-name="Tracé 4814" d="M341.129,315.966a1.544,1.544,0,0,1-2.153-.567,1.565,1.565,0,0,1,.453-2.266,20.363,20.363,0,0,1,10.537-3.059,19.793,19.793,0,0,1,16.543,8.951,1.731,1.731,0,0,1-.453,2.266,1.534,1.534,0,0,1-2.266-.453,16.606,16.606,0,0,0-13.823-7.478,16.424,16.424,0,0,0-8.838,2.606Z" transform="translate(-312.4 -244.793)" fill="#66af27"/>
  </g>
</svg>
