<svg xmlns="http://www.w3.org/2000/svg" width="56.788" height="54.187" viewBox="0 0 56.788 54.187">
  <g id="noun-team-1122985" transform="translate(-72.437 -17.863)">
    <path id="Tracé_4821" data-name="Tracé 4821" d="M123.254,312.03a6.623,6.623,0,1,0-4.69-1.911,6.577,6.577,0,0,0,4.69,1.911Zm0-10.268a3.691,3.691,0,1,1-3.778,3.691,3.743,3.743,0,0,1,3.778-3.691Z" transform="translate(-39.917 -251.935)" fill="#66af27"/>
    <path id="Tracé_4822" data-name="Tracé 4822" d="M77.057,448.914a1.443,1.443,0,0,0,1.443-1.437V443.8a2.694,2.694,0,0,1,2.729-2.66h.916l2.9,2.845a2.1,2.1,0,0,0,2.927,0l2.9-2.845h.916a2.694,2.694,0,0,1,2.729,2.66v3.68a1.449,1.449,0,1,0,2.9,0V443.8a5.58,5.58,0,0,0-5.609-5.54H90.292a1.442,1.442,0,0,0-1.008.411l-2.758,2.712-2.781-2.694a1.442,1.442,0,0,0-1.008-.411H81.229A5.58,5.58,0,0,0,75.6,443.8v3.68a1.442,1.442,0,0,0,1.454,1.437Z" transform="translate(-3.166 -376.894)" fill="#66af27"/>
    <path id="Tracé_4823" data-name="Tracé 4823" d="M461.325,312.03a6.623,6.623,0,1,0-4.693-1.909,6.578,6.578,0,0,0,4.693,1.909Zm0-10.268a3.691,3.691,0,1,1-3.778,3.691,3.744,3.744,0,0,1,3.778-3.691Z" transform="translate(-343 -251.935)" fill="#66af27"/>
    <path id="Tracé_4824" data-name="Tracé 4824" d="M430.047,438.258H428.54a1.442,1.442,0,0,0-1.008.411l-2.758,2.712-2.758-2.694a1.441,1.441,0,0,0-1.008-.411H419.5a5.58,5.58,0,0,0-5.61,5.54v3.68a1.449,1.449,0,0,0,2.9,0v-3.7a2.695,2.695,0,0,1,2.73-2.66h.916l2.9,2.845a2.1,2.1,0,0,0,2.926,0l2.9-2.845h.916a2.693,2.693,0,0,1,2.706,2.66v3.68a1.449,1.449,0,0,0,2.9,0V443.8a5.58,5.58,0,0,0-5.627-5.54Z" transform="translate(-306.448 -376.894)" fill="#66af27"/>
    <path id="Tracé_4825" data-name="Tracé 4825" d="M292.266,31.081a6.623,6.623,0,1,0-4.685-1.9A6.626,6.626,0,0,0,292.266,31.081Zm0-10.245a3.743,3.743,0,0,1,3.778,3.691,3.778,3.778,0,0,1-7.533,0,3.743,3.743,0,0,1,3.755-3.691Z" transform="translate(-191.435 0)" fill="#66af27"/>
    <path id="Tracé_4826" data-name="Tracé 4826" d="M246.273,168.745a1.443,1.443,0,0,0,1.443-1.443v-3.674a2.694,2.694,0,0,1,2.729-2.66h.916l2.9,2.845h0a2.1,2.1,0,0,0,2.927,0l2.9-2.845h.91a2.694,2.694,0,0,1,2.729,2.66v3.68a1.449,1.449,0,1,0,2.9,0v-3.68a5.58,5.58,0,0,0-5.609-5.54h-1.524a1.442,1.442,0,0,0-1.008.411l-2.758,2.712L252.96,158.5h0a1.442,1.442,0,0,0-1.008-.411h-1.507a5.58,5.58,0,0,0-5.609,5.54v3.68a1.443,1.443,0,0,0,1.437,1.437Z" transform="translate(-154.887 -125.716)" fill="#66af27"/>
    <path id="Tracé_4827" data-name="Tracé 4827" d="M301.136,305.008a1.443,1.443,0,0,0-2-.359,28.523,28.523,0,0,0-5.963,5.557,10.42,10.42,0,0,0-2.608-2.121,1.443,1.443,0,1,0-1.426,2.474,7.532,7.532,0,0,1,2.77,2.77,1.443,1.443,0,0,0,1.159.718h.064a1.442,1.442,0,0,0,1.159-.62,25.664,25.664,0,0,1,6.49-6.415,1.443,1.443,0,0,0,.359-2Z" transform="translate(-193.786 -256.88)" fill="#66af27"/>
  </g>
</svg>
